#N canvas 74 141 1148 753 10;
#X obj -82 569 hsl 75 15 0 1 0 1 empty empty empty -2 -6 0 8 -262144
-1 -1 0 1;
#X obj -63 589 pix_mix 0;
#X obj -17 352 bng 15 250 50 0 empty empty empty 17 7 0 10 -262144
-1 -1;
#X obj -76 352 pix_film;
#X msg -16 330 0;
#X obj -68 311 tgl 15 0 empty empty empty 17 7 0 10 -262144 -1 -1 1
1;
#X msg -68 329 auto \$1;
#X obj -92 288 translateXYZ 0 0 0;
#X obj -92 545 rotateXYZ 0 0 0;
#X obj -59 432 f;
#X obj -30 432 + 1;
#X obj 85 612 rotateXYZ;
#X obj -59 412 metro 200;
#X obj 97 567 f;
#X obj 125 567 + 1;
#X obj 97 546 metro 20;
#X obj 175 568 rotateXYZ 0 0 1;
#X obj 207 501 f;
#X obj 85 504 separator;
#X obj 85 259 pix_pix2sig~ 8 8;
#X obj 235 501 - 1;
#X obj 109 458 /~;
#X obj 201 331 /~;
#X obj 161 459 /~;
#X obj 85 481 pix_sig2pix~ 8 8;
#X obj 85 372 pix_pix2sig~ 128 128;
#X obj 181 290 *~;
#X obj 729 537 mario_warppipe;
#X obj 85 332 pix_sig2pix~ 8 8;
#X obj 175 614 torus 2.45;
#X obj 252 331 phasor~;
#X obj 252 287 unsig~;
#X obj 252 309 * 400;
#X obj 252 352 *~ 240;
#X obj 136 459 *~;
#X obj 268 407 osc~;
#X obj 220 409 osc~;
#X obj 250 476 osc~;
#X obj 116 289 /~;
#X obj 153 290 *~;
#X obj 90 310 *~;
#X obj 116 310 -~ 0.55;
#X obj 168 311 *~ 5;
#X obj 262 377 cos~;
#X obj -92 612 pix_texture 1;
#X obj 85 589 pix_texture 2;
#X obj 175 525 pix_texture 3;
#X obj 175 591 pix_texture 4;
#X obj 175 546 separator;
#X obj -92 227 gemhead 53;
#X obj -82 -60 inlet;
#X obj -39 -60 inlet;
#X obj 5 -60 inlet;
#X obj -24 116 + 0;
#X obj 31 116 + 0;
#X obj 91 -5 unpack f f f;
#X obj -78 116 + 0;
#X obj 203 38 * -1;
#X obj 147 38 * -1;
#X obj 91 38 * -1;
#X obj 91 -47 bng 15 250 50 0 empty empty empty 17 7 0 10 -262144 -1
-1;
#X text -65 -90 lr -- ud -- fb;
#X obj 85 635 outlet;
#X text -70 -77 X;
#X text -26 -76 Y;
#X text 17 -76 Z;
#X obj 19 94 t b f;
#X obj -36 94 t b f;
#X obj -90 94 t b f;
#X obj 258 -53 inlet;
#X text 256 -70 msg open /FILENAME;
#X obj -39 -39 s \$0-y;
#X obj 5 -39 s \$0-z;
#X obj -82 -39 s \$0-x;
#X obj -85 71 r \$0-x;
#X obj -31 71 r \$0-y;
#X obj 26 72 r \$0-z;
#X obj 468 260 t b f;
#X obj 416 261 t b f;
#X obj 366 220 r \$0-x;
#X obj 416 220 r \$0-y;
#X obj 468 220 r \$0-z;
#X obj 203 59 s \$0-hmZ;
#X obj 147 59 s \$0-hmY;
#X obj 91 59 s \$0-hmX;
#X obj -90 50 r \$0-hmX;
#X obj -36 50 r \$0-hmY;
#X obj 19 50 r \$0-hmZ;
#X obj 381 200 r \$0-hmX;
#X obj 435 200 r \$0-hmY;
#X obj 490 200 r \$0-hmZ;
#X obj -92 635 geo-house;
#X obj -92 268 spigot 1;
#X obj 729 364 gemkeyboard;
#X obj 729 471 select 49;
#X obj 729 582 dac~;
#X obj 729 558 *~ 0.5;
#X msg 739 494 0;
#X obj 729 408 spigot;
#X text 779 555 plays delete \; sound;
#X obj 470 460 separator;
#X msg 486 561 draw line;
#X msg 478 581 draw fill;
#X obj 470 541 polygon 3;
#X obj 574 461 separator;
#X msg 590 562 draw line;
#X msg 582 582 draw fill;
#X obj 574 542 polygon 3;
#X obj 548 465 bng 15 250 50 0 empty empty empty 17 7 0 10 -262144
-1 -1;
#X obj 366 308 s \$0-canDelete;
#X obj 741 383 r \$0-canDelete;
#X obj 480 364 r \$0-canDelete;
#X msg 487 480 0 0 0;
#X msg 591 481 0 0 0;
#X msg 521 519 0 -0.25 0;
#X msg 625 520 0 -0.25 0;
#X msg 504 500 -0.25 -0.5 0;
#X msg 608 501 0.25 -0.5 0;
#X obj 447 388 spigot;
#X obj 366 241 +;
#X obj 416 240 +;
#X obj 468 240 +;
#X obj 470 433 colorRGB 1 0 0 1;
#X obj 447 343 gemhead 100;
#X obj 366 288 expr if (abs($f1) < 2 && abs($f2) < 2 && abs($f3) <
2 \, 1 \, 0);
#X msg 112 -48 1;
#X obj 91 -81 inlet;
#X text 111 -65 place viewable home;
#X text 363 180 checks to see if in interior of home;
#X text 445 325 cursor;
#X obj -48 310 loadbang;
#X obj -59 394 tgl 15 0 empty empty empty 17 7 0 10 -262144 -1 -1 1
1;
#X obj -23 371 loadbang;
#X obj 97 526 tgl 15 0 empty empty empty 17 7 0 10 -262144 -1 -1 1
1;
#X obj 117 525 loadbang;
#X obj 578 432 loadbang;
#X obj 258 194 *~ 1;
#X obj 739 515 s \$0-delete;
#X obj -47 247 r \$0-delete;
#X obj 279 163 r \$0-delete;
#X obj 141 -48 s \$0-delete;
#X obj 258 216 outlet~;
#X text 264 -29 stores file in table \; as data for music;
#X obj 411 -49 inlet~;
#X text 410 -78 sound from \; associated obj;
#X text 278 147 turns off music;
#X obj 461 98 t b f;
#X obj 409 99 t b f;
#X obj 359 58 r \$0-x;
#X obj 409 58 r \$0-y;
#X obj 461 58 r \$0-z;
#X obj 374 38 r \$0-hmX;
#X obj 428 38 r \$0-hmY;
#X obj 483 38 r \$0-hmZ;
#X obj 359 79 +;
#X obj 409 78 +;
#X obj 461 78 +;
#X text 357 17 distance between player and home;
#X obj 258 107 *~;
#X text 92 240 makes glitchy gif texture;
#X text -83 -22 from gem-key-nav;
#X text -90 32 how homes placed in space;
#X obj 592 -78 inlet;
#X obj 632 -78 inlet;
#X obj 672 -78 inlet;
#X obj 547 -23 r \$0-delete;
#X obj 547 -2 sel 0;
#X text 546 -39 makes signboard visible;
#X obj 716 -78 inlet;
#X obj -97 181 s \$0-x-sign;
#X obj -42 160 s \$0-y-sign;
#X obj -5 140 s \$0-z-sign;
#X obj 588 -1 r \$0-x-sign;
#X obj 662 -1 r \$0-y-sign;
#X obj 739 -1 r \$0-z-sign;
#X obj 760 -77 inlet;
#X obj 804 -77 inlet;
#X text 753 220 SNDout;
#X text 606 219 GEMout;
#X text 669 215 A-HOME-V6;
#X text 603 201 X--Y--Z - bang file music ln1 ln2 ln3 ln4 ln5 ln6;
#X obj 849 2 r \$0-delete;
#X obj 849 23 sel 0;
#X obj 849 64 outlet;
#X text 854 220 homes;
#X text 847 -40 once home deleted wait \; till signboard disappears
\; send bang to adjust homes;
#X obj -30 457 trandom 360;
#X obj -45 523 +;
#X obj -5 523 +;
#X obj -23 391 t b b;
#X obj 10 480 trandom 720;
#X obj 10 502 - 360;
#X obj -30 479 - 360;
#X obj 258 5 file-music;
#X obj 410 128 expr if (sqrt(pow($f1 \, 2) + pow($f2 \, 2) + pow($f3
\, 2)) < 10 \, 1 \, 10/sqrt(pow($f1 \, 2) + pow($f2 \, 2) + pow($f3
\, 2)));
#X text 767 497 deletes home/ turns cursor off;
#X msg 79 181 1;
#X obj 470 411 spigot;
#X obj 79 207 s \$0-workingCursor;
#X obj 503 390 r \$0-workingCursor;
#X obj 815 515 s \$0-workingCursor;
#X obj 743 442 spigot;
#X obj 776 421 r \$0-workingCursor;
#X obj 142 119 chk-dist;
#X obj 91 -26 tripleRand 550 550 550;
#X obj 91 16 - 275;
#X obj 147 16 - 275;
#X obj 203 16 - 275;
#X obj 849 43 del 21005;
#X obj 581 41 signboard;
#X connect 0 0 1 2;
#X connect 1 0 44 0;
#X connect 2 0 4 0;
#X connect 3 0 19 0;
#X connect 3 0 1 1;
#X connect 3 0 1 0;
#X connect 3 2 2 0;
#X connect 4 0 3 1;
#X connect 5 0 6 0;
#X connect 6 0 3 0;
#X connect 7 0 8 0;
#X connect 8 0 44 0;
#X connect 9 0 10 0;
#X connect 9 0 187 0;
#X connect 9 0 188 0;
#X connect 10 0 9 1;
#X connect 11 0 62 0;
#X connect 12 0 9 0;
#X connect 13 0 14 0;
#X connect 13 0 11 3;
#X connect 13 0 11 1;
#X connect 14 0 13 1;
#X connect 15 0 13 0;
#X connect 15 0 17 0;
#X connect 16 0 47 0;
#X connect 17 0 16 1;
#X connect 17 0 16 3;
#X connect 17 0 20 0;
#X connect 18 0 45 0;
#X connect 19 0 28 0;
#X connect 19 1 40 0;
#X connect 19 2 38 0;
#X connect 19 3 39 0;
#X connect 19 4 26 0;
#X connect 20 0 17 1;
#X connect 21 0 24 1;
#X connect 22 0 24 0;
#X connect 23 0 24 3;
#X connect 24 0 18 0;
#X connect 25 0 24 0;
#X connect 25 1 22 0;
#X connect 25 2 21 0;
#X connect 25 3 34 0;
#X connect 25 4 23 0;
#X connect 26 0 28 3;
#X connect 26 0 31 0;
#X connect 27 0 96 0;
#X connect 28 0 25 0;
#X connect 28 0 46 0;
#X connect 30 0 33 0;
#X connect 31 0 32 0;
#X connect 32 0 30 0;
#X connect 33 0 36 0;
#X connect 33 0 37 0;
#X connect 33 0 43 0;
#X connect 34 0 24 2;
#X connect 35 0 21 1;
#X connect 35 0 37 0;
#X connect 35 0 40 1;
#X connect 36 0 22 1;
#X connect 36 0 26 1;
#X connect 37 0 23 1;
#X connect 37 0 36 0;
#X connect 37 0 38 1;
#X connect 38 0 41 0;
#X connect 39 0 42 0;
#X connect 40 0 28 0;
#X connect 41 0 28 1;
#X connect 42 0 28 2;
#X connect 43 0 35 0;
#X connect 43 0 39 1;
#X connect 44 0 91 0;
#X connect 45 0 11 0;
#X connect 46 0 48 0;
#X connect 47 0 29 0;
#X connect 48 0 16 0;
#X connect 49 0 92 0;
#X connect 50 0 73 0;
#X connect 51 0 71 0;
#X connect 52 0 72 0;
#X connect 53 0 7 2;
#X connect 53 0 170 0;
#X connect 54 0 7 3;
#X connect 54 0 171 0;
#X connect 55 0 205 0;
#X connect 55 1 206 0;
#X connect 55 2 207 0;
#X connect 56 0 7 1;
#X connect 56 0 169 0;
#X connect 57 0 82 0;
#X connect 58 0 83 0;
#X connect 59 0 84 0;
#X connect 60 0 125 0;
#X connect 60 0 204 0;
#X connect 66 0 54 0;
#X connect 66 1 54 1;
#X connect 67 0 53 0;
#X connect 67 1 53 1;
#X connect 68 0 56 0;
#X connect 68 1 56 1;
#X connect 69 0 3 0;
#X connect 69 0 193 0;
#X connect 74 0 56 0;
#X connect 75 0 53 0;
#X connect 76 0 54 0;
#X connect 77 0 124 0;
#X connect 77 1 124 2;
#X connect 78 0 124 0;
#X connect 78 1 124 1;
#X connect 79 0 119 0;
#X connect 80 0 120 0;
#X connect 81 0 121 0;
#X connect 85 0 68 0;
#X connect 86 0 67 0;
#X connect 87 0 66 0;
#X connect 88 0 119 1;
#X connect 89 0 120 1;
#X connect 90 0 121 1;
#X connect 92 0 7 0;
#X connect 92 0 3 0;
#X connect 93 0 98 0;
#X connect 94 0 27 0;
#X connect 94 0 97 0;
#X connect 96 0 95 0;
#X connect 96 0 95 1;
#X connect 97 0 137 0;
#X connect 97 0 200 0;
#X connect 98 0 201 0;
#X connect 100 0 103 0;
#X connect 101 0 103 0;
#X connect 102 0 103 0;
#X connect 104 0 107 0;
#X connect 105 0 107 0;
#X connect 106 0 107 0;
#X connect 108 0 112 0;
#X connect 108 0 116 0;
#X connect 108 0 114 0;
#X connect 108 0 113 0;
#X connect 108 0 117 0;
#X connect 108 0 115 0;
#X connect 110 0 98 1;
#X connect 111 0 118 1;
#X connect 112 0 103 1;
#X connect 113 0 107 1;
#X connect 114 0 103 3;
#X connect 115 0 107 3;
#X connect 116 0 103 2;
#X connect 117 0 107 2;
#X connect 118 0 197 0;
#X connect 119 0 124 0;
#X connect 120 0 78 0;
#X connect 121 0 77 0;
#X connect 122 0 100 0;
#X connect 122 0 104 0;
#X connect 123 0 118 0;
#X connect 124 0 109 0;
#X connect 125 0 140 0;
#X connect 126 0 60 0;
#X connect 126 0 196 0;
#X connect 130 0 5 0;
#X connect 131 0 12 0;
#X connect 132 0 189 0;
#X connect 133 0 15 0;
#X connect 134 0 133 0;
#X connect 135 0 108 0;
#X connect 136 0 141 0;
#X connect 138 0 92 1;
#X connect 139 0 136 1;
#X connect 143 0 158 0;
#X connect 146 0 194 0;
#X connect 146 1 194 2;
#X connect 147 0 194 0;
#X connect 147 1 194 1;
#X connect 148 0 154 0;
#X connect 149 0 155 0;
#X connect 150 0 156 0;
#X connect 151 0 154 1;
#X connect 152 0 155 1;
#X connect 153 0 156 1;
#X connect 154 0 194 0;
#X connect 155 0 147 0;
#X connect 156 0 146 0;
#X connect 158 0 136 0;
#X connect 162 0 209 4;
#X connect 163 0 209 5;
#X connect 164 0 209 6;
#X connect 165 0 166 0;
#X connect 166 0 209 0;
#X connect 168 0 209 7;
#X connect 172 0 209 1;
#X connect 173 0 209 2;
#X connect 174 0 209 3;
#X connect 175 0 209 8;
#X connect 176 0 209 9;
#X connect 181 0 182 0;
#X connect 182 0 208 0;
#X connect 186 0 192 0;
#X connect 187 0 8 2;
#X connect 188 0 8 3;
#X connect 189 0 131 0;
#X connect 189 1 186 0;
#X connect 189 1 190 0;
#X connect 190 0 191 0;
#X connect 191 0 188 1;
#X connect 192 0 187 1;
#X connect 193 0 158 0;
#X connect 194 0 158 1;
#X connect 196 0 198 0;
#X connect 197 0 122 0;
#X connect 199 0 197 1;
#X connect 201 0 94 0;
#X connect 202 0 201 1;
#X connect 203 0 204 0;
#X connect 204 0 55 0;
#X connect 205 0 59 0;
#X connect 205 0 203 0;
#X connect 206 0 58 0;
#X connect 206 0 203 1;
#X connect 207 0 57 0;
#X connect 207 0 203 2;
#X connect 208 0 183 0;
#X coords 0 -1 1 1 300 35 2 600 200;
