#N canvas 51 27 1207 703 10;
#X obj 513 -312 separator;
#X obj 957 -114 textextruded;
#X obj 958 -311 separator;
#X obj 513 -114 textextruded;
#X obj -28 -308 inlet;
#X obj 340 -260 f;
#X obj 366 -260 + 1;
#X obj 340 -239 % 2;
#X obj 276 -233 gemhead 0;
#X obj 660 -114 textextruded;
#X obj 660 -312 separator;
#X obj 206 -144 separator;
#X obj 276 -192 spigot 0;
#X obj 353 -309 loadbang;
#X msg 353 -288 1;
#X obj 393 -266 s \$0-size;
#X obj 583 -134 r \$0-size;
#X obj 1024 -134 r \$0-size;
#X obj 731 -134 r \$0-size;
#X msg 392 -288 6;
#X obj 809 -114 textextruded;
#X obj 809 -311 separator;
#X obj 878 -134 r \$0-size;
#X obj 369 -150 colorRGB 0 0.25 0 1;
#X obj 206 -122 translateXYZ 0 0 -0.1;
#X obj 147 276 colorSquare 8;
#X obj 34 -235 s \$0-signOn;
#X obj -29 -214 s \$0-signOff;
#X obj 159 -248 r \$0-signOff;
#X obj 148 -309 r \$0-signOn;
#X obj 276 -308 r \$0-signOn;
#X obj 250 -283 r \$0-signOff;
#X obj 148 -224 tgl 15 0 empty empty empty 17 7 0 10 -262144 -1 -1
0 1;
#X msg 817 -134 depth \$1;
#X msg 670 -134 depth \$1;
#X obj 817 -154 r \$0-depth5;
#X obj 670 -154 r \$0-depth3;
#X msg 522 -134 depth \$1;
#X msg 964 -134 depth \$1;
#X obj 522 -154 r \$0-depth1;
#X obj 964 -154 r \$0-depth2;
#X msg -37 446 0.5;
#X obj 36 448 s \$0-depth1;
#X obj 115 448 s \$0-depth2;
#X obj 194 448 s \$0-depth3;
#X obj 272 448 s \$0-depth4;
#X obj 351 448 s \$0-depth5;
#X obj 432 448 s \$0-depth6;
#X obj 211 -185 f;
#X obj -37 425 r \$0-signOn;
#X obj 36 427 line;
#X obj 36 386 pack f f;
#X obj 53 291 t b f b;
#X obj 148 -268 t b b;
#X msg 36 406 \$2 \$1;
#X obj 115 427 line;
#X obj 115 386 pack f f;
#X msg 115 406 \$2 \$1;
#X obj 194 427 line;
#X obj 194 386 pack f f;
#X msg 194 406 \$2 \$1;
#X obj 272 427 line;
#X obj 272 386 pack f f;
#X msg 272 406 \$2 \$1;
#X obj 351 427 line;
#X obj 351 386 pack f f;
#X msg 351 406 \$2 \$1;
#X obj 432 427 line;
#X obj 432 386 pack f f;
#X msg 432 406 \$2 \$1;
#X obj 450 365 * -1;
#X obj 369 365 * -1;
#X obj 291 365 * -1;
#X obj 212 365 * -1;
#X obj 133 365 * -1;
#X obj 54 365 * -1;
#X obj 237 -185 - 3;
#X msg 187 75 0.02 1 0.631;
#X msg 157 95 1 0 0.5;
#X obj 193 221 r \$0-signOn;
#X msg 142 15 0.25 0 1;
#X msg 172 55 0.004 0.804 0.996;
#X obj 450 345 random;
#X obj 369 345 random;
#X obj 290 345 random;
#X obj 212 345 random;
#X obj 133 345 random;
#X obj 54 345 random;
#X obj 63 -26 accumrotate;
#X msg 214 -74 reset;
#X obj 214 -95 r \$0-signOn;
#X obj 78 -120 random 10;
#X obj 78 -100 / 100;
#X obj 63 -80 *;
#X obj 51 -141 t f b;
#X obj 11 -119 random 10;
#X obj 11 -99 / 100;
#X obj -4 -79 *;
#X obj -16 -140 t f b;
#X obj 142 -121 random 10;
#X obj 142 -101 / 100;
#X obj 127 -81 *;
#X obj 115 -142 t f b;
#X msg 193 242 1 0 0.5;
#X obj 148 -206 metro 150;
#X msg 211 -206 147;
#X obj 176 198 expr ((155 - $f1) * 5);
#X obj 143 -5 sel 0 1 2 3 4 5;
#X obj 143 -26 random 6;
#X msg 215 15 0.831 0.384 0.235;
#X msg 201 35 0.984 0.957 0.408;
#X obj 144 224 / 30;
#X obj 276 171 togSpigot;
#X obj 284 145 r \$0-signOn;
#X obj 191 173 togSpigot;
#X obj 198 145 r \$0-signOn;
#X obj 108 177 togSpigot;
#X obj 111 144 r \$0-signOn;
#X obj 19 174 togSpigot;
#X obj 24 144 r \$0-signOn;
#X obj 297 62 random 4;
#X obj 297 83 sel 0 1 2 3;
#X text 20 -257 wait till recenter;
#X text 8 -310 turns on sign;
#X obj -28 -258 del 200;
#X obj 513 -91 separator;
#X obj 957 93 textextruded;
#X obj 958 -90 separator;
#X obj 513 93 textextruded;
#X obj 660 93 textextruded;
#X obj 660 -91 separator;
#X obj 583 73 r \$0-size;
#X obj 1024 73 r \$0-size;
#X obj 731 73 r \$0-size;
#X obj 809 93 textextruded;
#X obj 809 -90 separator;
#X obj 878 73 r \$0-size;
#X msg 817 73 depth \$1;
#X msg 670 73 depth \$1;
#X msg 522 73 depth \$1;
#X msg 964 73 depth \$1;
#X obj 513 116 separator;
#X obj 957 314 textextruded;
#X obj 958 117 separator;
#X obj 513 314 textextruded;
#X obj 660 314 textextruded;
#X obj 660 116 separator;
#X obj 583 294 r \$0-size;
#X obj 1024 294 r \$0-size;
#X obj 731 294 r \$0-size;
#X obj 809 314 textextruded;
#X obj 809 117 separator;
#X obj 878 294 r \$0-size;
#X msg 817 294 depth \$1;
#X msg 670 294 depth \$1;
#X msg 522 294 depth \$1;
#X msg 964 294 depth \$1;
#X obj 522 274 r \$0-depth1;
#X obj 964 274 r \$0-depth2;
#X obj 513 337 separator;
#X obj 957 548 textextruded;
#X obj 958 336 separator;
#X obj 513 548 textextruded;
#X obj 660 548 textextruded;
#X obj 660 337 separator;
#X obj 583 528 r \$0-size;
#X obj 1024 528 r \$0-size;
#X obj 731 528 r \$0-size;
#X obj 809 548 textextruded;
#X obj 809 338 separator;
#X obj 878 528 r \$0-size;
#X msg 817 528 depth \$1;
#X msg 670 528 depth \$1;
#X msg 522 528 depth \$1;
#X msg 964 528 depth \$1;
#X msg 520 -272 text When we reduce people to categories - black or
white -;
#X msg 821 -219 text our need to ensure power over them by a process
of dualizing;
#X msg 672 -252 text male or female - it is because of our own preconceptions
-;
#X msg 968 -186 text reduction. No love can ever be described in a
univocal way...;
#X msg 520 -51 text there are two possible politics in relation to
signification.;
#X msg 662 -19 text Either one accepts it de jure as an inevitable
effect -;
#X msg 821 0 text and expects to find it at every semiotic level or
one;
#X msg 968 20 text accepts it de facto - in the context of a particular
political;
#X msg 520 156 text system - and proposes to counter it with a generalized
;
#X msg 672 177 text micro-political struggle that can undermine it
from within -;
#X msg 821 209 text in such a way as to enable all the intensive multiplicities
;
#X msg 968 242 text to escape from the tyranny of the signifying over-encoding.
;
#X msg 520 377 text What this means is unleashing a whole host of expressions
;
#X msg 672 410 text and experimentations - those of children - of schizophrenics
-;
#X msg 821 442 text of homosexuals - of prisoners - of misfits of every
kind -;
#X msg 968 475 text that all work to penetrate and eat into the semiology
of;
#X obj 513 570 separator;
#X obj 513 735 textextruded;
#X obj 660 735 textextruded;
#X obj 660 570 separator;
#X obj 583 715 r \$0-size;
#X obj 731 715 r \$0-size;
#X obj 809 735 textextruded;
#X obj 809 571 separator;
#X obj 878 715 r \$0-size;
#X msg 817 715 depth \$1;
#X msg 670 715 depth \$1;
#X obj 817 695 r \$0-depth5;
#X msg 522 715 depth \$1;
#X msg 520 610 text the dominant order - to feel out new escape routes
and produce;
#X msg 821 675 text - Felix Guattari;
#X msg 672 643 text new and unheard of constellations of a-signifying
particle-signs.;
#X obj -16 -287 s \$0-textBNG;
#X text 64 -287 loads text;
#X obj 560 -203 r \$0-textBNG;
#X obj 546 221 r \$0-textBNG;
#X obj 542 648 r \$0-textBNG;
#X obj 276 -213 translateXYZ 0 0 -5;
#X obj 660 137 translateXYZ 0 0 1;
#X obj 670 274 r \$0-depth4;
#X obj 817 274 r \$0-depth6;
#X obj 522 53 r \$0-depth4;
#X obj 670 53 r \$0-depth6;
#X obj 817 53 r \$0-depth2;
#X obj 964 53 r \$0-depth5;
#X obj 522 508 r \$0-depth5;
#X obj 670 508 r \$0-depth1;
#X obj 817 508 r \$0-depth2;
#X obj 964 508 r \$0-depth3;
#X obj 522 695 r \$0-depth6;
#X obj 670 695 r \$0-depth1;
#X obj 237 -292 bng 15 250 50 0 empty empty empty 17 7 0 10 -262144
-1 -1;
#X msg 248 242 9;
#X obj 513 137 translateXYZ 0 0.75 1;
#X obj 809 137 translateXYZ 0 -0.75 1;
#X obj 957 138 translateXYZ 0 -1.5 1;
#X obj 513 358 translateXYZ 0 -2.25 1;
#X obj 660 358 translateXYZ 0 -3 1;
#X obj 809 358 translateXYZ 0 -3.75 1;
#X obj 957 357 translateXYZ 0 -4.5 1;
#X obj 513 591 translateXYZ 0 -5.25 1;
#X obj 660 591 translateXYZ 0 -6 1;
#X obj 809 591 translateXYZ 0 -6.75 1;
#X obj 957 -69 translateXYZ 0 1.5 1;
#X obj 809 -70 translateXYZ 0 2.25 1;
#X obj 660 -70 translateXYZ 0 3 1;
#X obj 513 -70 translateXYZ 0 3.75 1;
#X obj 957 -290 translateXYZ 0 4.5 1;
#X obj 809 -291 translateXYZ 0 5.25 1;
#X obj 660 -291 translateXYZ 0 6 1;
#X obj 513 -291 translateXYZ 0 6.75 1;
#X obj 148 -289 del 55000;
#X obj -29 -235 del 60000;
#X obj 409 -181 unpack f f f;
#X obj 396 162 s \$0-colors;
#X obj 411 -244 r \$0-colors;
#X obj 424 -223 r \$0-signOn;
#X msg 424 -202 0 0.25 0;
#X connect 0 0 245 0;
#X connect 2 0 242 0;
#X connect 4 0 124 0;
#X connect 4 0 207 0;
#X connect 5 0 6 0;
#X connect 5 0 7 0;
#X connect 6 0 5 1;
#X connect 7 0 12 1;
#X connect 8 0 212 0;
#X connect 10 0 244 0;
#X connect 11 0 24 0;
#X connect 12 0 23 0;
#X connect 12 0 11 0;
#X connect 13 0 14 0;
#X connect 13 0 19 0;
#X connect 14 0 5 1;
#X connect 16 0 3 1;
#X connect 17 0 1 1;
#X connect 18 0 9 1;
#X connect 19 0 15 0;
#X connect 21 0 243 0;
#X connect 22 0 20 1;
#X connect 23 0 2 0;
#X connect 23 0 0 0;
#X connect 23 0 10 0;
#X connect 23 0 21 0;
#X connect 23 0 143 0;
#X connect 23 0 161 0;
#X connect 23 0 127 0;
#X connect 23 0 125 0;
#X connect 23 0 130 0;
#X connect 23 0 135 0;
#X connect 23 0 141 0;
#X connect 23 0 146 0;
#X connect 23 0 151 0;
#X connect 23 0 169 0;
#X connect 23 0 164 0;
#X connect 23 0 159 0;
#X connect 23 0 191 0;
#X connect 23 0 194 0;
#X connect 23 0 198 0;
#X connect 24 0 88 0;
#X connect 28 0 32 0;
#X connect 29 0 246 0;
#X connect 30 0 5 0;
#X connect 31 0 5 0;
#X connect 32 0 104 0;
#X connect 33 0 20 0;
#X connect 34 0 9 0;
#X connect 35 0 33 0;
#X connect 36 0 34 0;
#X connect 37 0 3 0;
#X connect 38 0 1 0;
#X connect 39 0 37 0;
#X connect 40 0 38 0;
#X connect 41 0 42 0;
#X connect 41 0 43 0;
#X connect 41 0 44 0;
#X connect 41 0 45 0;
#X connect 41 0 46 0;
#X connect 41 0 47 0;
#X connect 48 0 52 0;
#X connect 48 0 76 0;
#X connect 48 0 102 0;
#X connect 48 0 94 0;
#X connect 48 0 98 0;
#X connect 48 0 104 1;
#X connect 48 0 106 0;
#X connect 49 0 41 0;
#X connect 50 0 42 0;
#X connect 51 0 54 0;
#X connect 52 0 51 0;
#X connect 52 0 56 0;
#X connect 52 0 59 0;
#X connect 52 0 62 0;
#X connect 52 0 65 0;
#X connect 52 0 68 0;
#X connect 52 1 51 0;
#X connect 52 1 56 0;
#X connect 52 1 59 0;
#X connect 52 1 62 0;
#X connect 52 1 65 0;
#X connect 52 1 68 0;
#X connect 52 2 82 0;
#X connect 52 2 83 0;
#X connect 52 2 84 0;
#X connect 52 2 85 0;
#X connect 52 2 86 0;
#X connect 52 2 87 0;
#X connect 53 0 32 0;
#X connect 53 1 105 0;
#X connect 54 0 50 0;
#X connect 55 0 43 0;
#X connect 56 0 57 0;
#X connect 57 0 55 0;
#X connect 58 0 44 0;
#X connect 59 0 60 0;
#X connect 60 0 58 0;
#X connect 61 0 45 0;
#X connect 62 0 63 0;
#X connect 63 0 61 0;
#X connect 64 0 46 0;
#X connect 65 0 66 0;
#X connect 66 0 64 0;
#X connect 67 0 47 0;
#X connect 68 0 69 0;
#X connect 69 0 67 0;
#X connect 70 0 68 1;
#X connect 71 0 65 1;
#X connect 72 0 62 1;
#X connect 73 0 59 1;
#X connect 74 0 56 1;
#X connect 75 0 51 1;
#X connect 76 0 48 1;
#X connect 77 0 118 0;
#X connect 77 0 116 0;
#X connect 77 0 114 0;
#X connect 77 0 112 0;
#X connect 77 0 249 0;
#X connect 78 0 118 0;
#X connect 78 0 116 0;
#X connect 78 0 114 0;
#X connect 78 0 112 0;
#X connect 78 0 249 0;
#X connect 79 0 103 0;
#X connect 79 0 227 0;
#X connect 80 0 118 0;
#X connect 80 0 116 0;
#X connect 80 0 114 0;
#X connect 80 0 112 0;
#X connect 81 0 118 0;
#X connect 81 0 116 0;
#X connect 81 0 114 0;
#X connect 81 0 112 0;
#X connect 81 0 249 0;
#X connect 82 0 70 0;
#X connect 83 0 71 0;
#X connect 84 0 72 0;
#X connect 85 0 73 0;
#X connect 86 0 74 0;
#X connect 87 0 75 0;
#X connect 88 0 25 0;
#X connect 89 0 88 0;
#X connect 90 0 89 0;
#X connect 91 0 92 0;
#X connect 92 0 93 1;
#X connect 93 0 88 3;
#X connect 94 0 93 0;
#X connect 94 1 91 0;
#X connect 95 0 96 0;
#X connect 96 0 97 1;
#X connect 97 0 88 1;
#X connect 98 0 97 0;
#X connect 98 1 95 0;
#X connect 99 0 100 0;
#X connect 100 0 101 1;
#X connect 101 0 88 2;
#X connect 102 0 101 0;
#X connect 102 1 99 0;
#X connect 103 0 25 5;
#X connect 103 0 25 4;
#X connect 103 0 25 3;
#X connect 103 0 25 2;
#X connect 104 0 48 0;
#X connect 104 0 108 0;
#X connect 104 0 120 0;
#X connect 105 0 48 0;
#X connect 106 0 82 1;
#X connect 106 0 83 1;
#X connect 106 0 84 1;
#X connect 106 0 85 1;
#X connect 106 0 86 1;
#X connect 106 0 87 1;
#X connect 106 0 111 0;
#X connect 107 0 80 0;
#X connect 107 1 78 0;
#X connect 107 2 81 0;
#X connect 107 3 77 0;
#X connect 107 4 110 0;
#X connect 107 5 109 0;
#X connect 108 0 107 0;
#X connect 109 0 118 0;
#X connect 109 0 116 0;
#X connect 109 0 114 0;
#X connect 109 0 112 0;
#X connect 109 0 249 0;
#X connect 110 0 118 0;
#X connect 110 0 116 0;
#X connect 110 0 114 0;
#X connect 110 0 112 0;
#X connect 110 0 249 0;
#X connect 111 0 25 1;
#X connect 112 0 25 5;
#X connect 113 0 112 1;
#X connect 114 0 25 4;
#X connect 115 0 114 1;
#X connect 116 0 25 3;
#X connect 117 0 116 1;
#X connect 118 0 25 2;
#X connect 119 0 118 1;
#X connect 120 0 121 0;
#X connect 121 0 118 1;
#X connect 121 1 116 1;
#X connect 121 2 114 1;
#X connect 121 3 112 1;
#X connect 124 0 26 0;
#X connect 124 0 247 0;
#X connect 125 0 241 0;
#X connect 127 0 238 0;
#X connect 130 0 240 0;
#X connect 131 0 128 1;
#X connect 132 0 126 1;
#X connect 133 0 129 1;
#X connect 135 0 239 0;
#X connect 136 0 134 1;
#X connect 137 0 134 0;
#X connect 138 0 129 0;
#X connect 139 0 128 0;
#X connect 140 0 126 0;
#X connect 141 0 228 0;
#X connect 143 0 230 0;
#X connect 146 0 213 0;
#X connect 147 0 144 1;
#X connect 148 0 142 1;
#X connect 149 0 145 1;
#X connect 151 0 229 0;
#X connect 152 0 150 1;
#X connect 153 0 150 0;
#X connect 154 0 145 0;
#X connect 155 0 144 0;
#X connect 156 0 142 0;
#X connect 157 0 155 0;
#X connect 158 0 156 0;
#X connect 159 0 231 0;
#X connect 161 0 234 0;
#X connect 164 0 232 0;
#X connect 165 0 162 1;
#X connect 166 0 160 1;
#X connect 167 0 163 1;
#X connect 169 0 233 0;
#X connect 170 0 168 1;
#X connect 171 0 168 0;
#X connect 172 0 163 0;
#X connect 173 0 162 0;
#X connect 174 0 160 0;
#X connect 175 0 3 0;
#X connect 176 0 20 0;
#X connect 177 0 9 0;
#X connect 178 0 1 0;
#X connect 179 0 128 0;
#X connect 180 0 129 0;
#X connect 181 0 134 0;
#X connect 182 0 126 0;
#X connect 183 0 144 0;
#X connect 184 0 145 0;
#X connect 185 0 150 0;
#X connect 186 0 142 0;
#X connect 187 0 162 0;
#X connect 188 0 163 0;
#X connect 189 0 168 0;
#X connect 190 0 160 0;
#X connect 191 0 235 0;
#X connect 194 0 236 0;
#X connect 195 0 192 1;
#X connect 196 0 193 1;
#X connect 198 0 237 0;
#X connect 199 0 197 1;
#X connect 200 0 197 0;
#X connect 201 0 193 0;
#X connect 202 0 200 0;
#X connect 203 0 192 0;
#X connect 204 0 192 0;
#X connect 205 0 197 0;
#X connect 206 0 193 0;
#X connect 209 0 175 0;
#X connect 209 0 177 0;
#X connect 209 0 176 0;
#X connect 209 0 178 0;
#X connect 209 0 179 0;
#X connect 209 0 180 0;
#X connect 209 0 181 0;
#X connect 209 0 182 0;
#X connect 210 0 183 0;
#X connect 210 0 184 0;
#X connect 210 0 185 0;
#X connect 210 0 186 0;
#X connect 210 0 187 0;
#X connect 210 0 188 0;
#X connect 210 0 189 0;
#X connect 210 0 190 0;
#X connect 211 0 204 0;
#X connect 211 0 206 0;
#X connect 211 0 205 0;
#X connect 212 0 12 0;
#X connect 213 0 145 0;
#X connect 214 0 154 0;
#X connect 215 0 153 0;
#X connect 216 0 139 0;
#X connect 217 0 138 0;
#X connect 218 0 137 0;
#X connect 219 0 140 0;
#X connect 220 0 173 0;
#X connect 221 0 172 0;
#X connect 222 0 171 0;
#X connect 223 0 174 0;
#X connect 224 0 203 0;
#X connect 225 0 201 0;
#X connect 226 0 5 0;
#X connect 226 0 207 0;
#X connect 227 0 25 1;
#X connect 228 0 144 0;
#X connect 229 0 150 0;
#X connect 230 0 142 0;
#X connect 231 0 162 0;
#X connect 232 0 163 0;
#X connect 233 0 168 0;
#X connect 234 0 160 0;
#X connect 235 0 192 0;
#X connect 236 0 193 0;
#X connect 237 0 197 0;
#X connect 238 0 126 0;
#X connect 239 0 134 0;
#X connect 240 0 129 0;
#X connect 241 0 128 0;
#X connect 242 0 1 0;
#X connect 243 0 20 0;
#X connect 244 0 9 0;
#X connect 245 0 3 0;
#X connect 246 0 53 0;
#X connect 247 0 27 0;
#X connect 248 0 23 1;
#X connect 248 1 23 2;
#X connect 248 2 23 3;
#X connect 250 0 248 0;
#X connect 251 0 252 0;
#X connect 252 0 248 0;
#X coords 0 703 1 702 100 35 0;
