#N canvas 40 97 1210 741 10;
#X obj 472 -325 gemkeyboard;
#X obj 472 -284 f;
#X obj 498 -284 + 1;
#X obj 472 -263 % 2;
#X obj 385 -288 gemhead 1;
#X obj 385 -267 spigot 0;
#X obj 430 -247 inlet;
#X obj 316 -294 s \$0-bang;
#X obj 249 -319 loadbang;
#X obj 205 -273 s \$0-fntsz1;
#X obj 282 -273 s \$0-fntsz2;
#X msg 282 -294 4;
#X msg 205 -294 6;
#X obj 385 -226 spigot 0;
#X obj 4 -206 separator;
#X obj 4 -185 colorRGB 0.004 0.804 0.996 1;
#X obj 930 -316 separator;
#X obj 1041 -225 r \$0-bang;
#X obj 1068 -186 r \$0-fntsz1;
#X obj 1035 -166 text3d;
#X obj 930 -296 colorRGB 0.02 1 0.631 1;
#X msg 20 29 justify left base;
#X obj 506 -101 separator;
#X obj 14 8 r \$0-bang;
#X msg 28 206 justify left base;
#X obj 22 185 r \$0-bang;
#X msg 187 -46 justify left base;
#X obj 181 -67 r \$0-bang;
#X msg 199 145 justify left base;
#X obj 193 124 r \$0-bang;
#X obj 39 81 r \$0-fntsz2;
#X obj 47 246 r \$0-fntsz2;
#X obj 206 9 r \$0-fntsz2;
#X obj 13 144 separator;
#X obj 5 -33 separator;
#X obj 217 186 r \$0-fntsz2;
#X obj 184 82 separator;
#X obj 172 -109 separator;
#X obj 172 28 text3d;
#X obj 5 101 text3d;
#X obj 13 266 text3d;
#X obj 184 205 text3d;
#X obj 506 -80 colorRGB 0.25 0 1 1;
#X obj 472 -305 select 11;
#X msg 18 227 text Discipline & Punish - Michel Foucault;
#X msg 11 49 text Normality: A Critical Genealogy - Peter Cryle & Elizabeth
Stephens;
#X msg 179 -25 text The Presentation of Self in Everyday Life - Erving
Goffman;
#X msg 189 166 text The Production of Space - Henri Lefebvre;
#X obj 886 -225 r \$0-bang;
#X obj 913 -186 r \$0-fntsz1;
#X obj 880 -166 text3d;
#X msg 886 -205 text STATEMENT;
#X obj 880 -266 separator;
#X obj 1035 -265 separator;
#X obj 3 -298 separator;
#X obj 3 -277 colorRGB 0.004 0.804 0.996 1;
#X msg 1041 -205 text BIBLIOGRAPHY;
#X msg 307 257 justify left base;
#X obj 301 236 r \$0-bang;
#X obj 325 311 r \$0-fntsz2;
#X obj 291 194 separator;
#X obj 292 330 text3d;
#X msg 297 278 text The Gertrude Stein Awards in Innovative American
Poetry 92-95 - ed. Douglas Messerli;
#X obj 407 -325 r \$0-bang;
#X msg 707 52 justify left base;
#X obj 701 31 r \$0-bang;
#X msg 719 248 justify left base;
#X obj 713 227 r \$0-bang;
#X msg 874 -23 justify left base;
#X obj 868 -44 r \$0-bang;
#X msg 886 168 justify left base;
#X obj 880 147 r \$0-bang;
#X obj 726 104 r \$0-fntsz2;
#X obj 738 301 r \$0-fntsz2;
#X obj 893 32 r \$0-fntsz2;
#X obj 704 186 separator;
#X obj 692 -10 separator;
#X obj 904 209 r \$0-fntsz2;
#X obj 870 105 separator;
#X obj 859 -86 separator;
#X obj 859 51 text3d;
#X obj 692 124 text3d;
#X obj 704 321 text3d;
#X obj 871 228 text3d;
#X msg 1081 90 justify left base;
#X obj 1075 69 r \$0-bang;
#X obj 1099 144 r \$0-fntsz2;
#X obj 1065 27 separator;
#X obj 1066 163 text3d;
#X msg 698 72 text I often feel the need to explain myself. This dread
of;
#X msg 709 269 text apologia is simply the condition of the subaltern
in;
#X msg 1092 288 justify left base;
#X obj 1086 267 r \$0-bang;
#X obj 1110 342 r \$0-fntsz2;
#X obj 1076 225 separator;
#X obj 1077 361 text3d;
#X obj 207 -196 separator;
#X obj 207 -130 rectangle 7 4;
#X obj 207 -175 colorRGB 1 0 0.5 0.7;
#X obj 207 -152 translateXYZ 0 0 -0.9;
#X obj 3 -254 translateXYZ 0 2 -0.85;
#X msg 1071 111 text stability. The trappings cover up the horror.
Like;
#X msg 1082 309 text picking the correct deodorant or china pattern.
;
#X obj 4 -140 rectangle 6.2 1.6;
#X obj 3 -232 rectangle 6.2 1.6;
#X obj 4 -162 translateXYZ 0 -2.05 -0.85;
#X obj 611 -274 separator;
#X msg 627 -187 justify left base;
#X obj 621 -208 r \$0-bang;
#X obj 645 -125 r \$0-fntsz3;
#X obj 223 -231 s \$0-fntsz3;
#X msg 223 -252 10;
#X obj 611 -105 textextruded;
#X obj 611 -253 colorRGB 0.65 0.18 0.5 0.7;
#X floatatom 172 -330 5 0 0 0 - - -;
#X msg 631 -146 depth 1.5;
#X msg 876 189 text the performative trappings does not guarantee long
term;
#X msg 885 363 justify left base;
#X obj 879 342 r \$0-bang;
#X obj 903 417 r \$0-fntsz2;
#X obj 869 300 separator;
#X obj 870 436 text3d;
#X msg 875 384 text The performance of passing is life long.;
#X obj 880 -245 translateXYZ 0 3.3 -0.8;
#X obj 1035 -245 translateXYZ 0 -0.7 -0.8;
#X obj 692 10 translateXYZ -3.5 2.6 -0.8;
#X obj 704 207 translateXYZ -3.5 2.3 -0.8;
#X obj 859 -65 translateXYZ -3.5 2 -0.8;
#X obj 871 126 translateXYZ -3.5 1.7 -0.8;
#X obj 1066 48 translateXYZ -3.5 1.4 -0.8;
#X obj 1077 246 translateXYZ -3.5 1.1 -0.8;
#X msg 618 -167 text a research joint from deSolidState.com;
#X msg 53 359 justify left base;
#X obj 47 338 r \$0-bang;
#X obj 71 413 r \$0-fntsz2;
#X obj 37 296 separator;
#X obj 38 432 text3d;
#X msg 416 388 justify left base;
#X obj 410 367 r \$0-bang;
#X obj 434 442 r \$0-fntsz2;
#X obj 400 325 separator;
#X obj 401 461 text3d;
#X msg 43 380 text Black on Both Sides: A Racial History of Trans Identity
- C. Riley Snorton;
#X msg 406 409 text hughson's tavern - Fred Moten;
#X obj 611 -231 translateXYZ -6.5 -0.2 -0.8;
#X msg 867 -2 text straight white christian capitalist patriarchy.
Gathering;
#X obj 870 321 translateXYZ -3.5 0.6 -0.8;
#X obj 5 -13 translateXYZ -5.8 -1.3 -0.8;
#X obj 13 164 translateXYZ -5.8 -1.6 -0.8;
#X obj 172 -88 translateXYZ -5.8 -1.9 -0.8;
#X obj 184 103 translateXYZ -5.8 -2.5 -0.8;
#X obj 38 317 translateXYZ -5.8 -3.4 -0.8;
#X obj 401 346 translateXYZ -5.8 -3.1 -0.8;
#X obj 292 215 translateXYZ -5.8 -2.8 -0.8;
#X msg 494 126 justify left base;
#X obj 488 105 r \$0-bang;
#X obj 512 180 r \$0-fntsz2;
#X obj 478 63 separator;
#X obj 479 199 text3d;
#X obj 479 84 translateXYZ -5.8 -2.2 -0.8;
#X msg 484 147 text Molecular Revolution: Psychiatry and Politics -
Félix Guattari;
#X connect 0 0 43 0;
#X connect 1 0 2 0;
#X connect 1 0 3 0;
#X connect 2 0 1 1;
#X connect 3 0 5 1;
#X connect 4 0 5 0;
#X connect 5 0 13 0;
#X connect 6 0 13 1;
#X connect 8 0 7 0;
#X connect 8 0 12 0;
#X connect 8 0 11 0;
#X connect 8 0 111 0;
#X connect 11 0 10 0;
#X connect 12 0 9 0;
#X connect 13 0 22 0;
#X connect 13 0 16 0;
#X connect 13 0 54 0;
#X connect 13 0 14 0;
#X connect 13 0 96 0;
#X connect 13 0 106 0;
#X connect 14 0 15 0;
#X connect 15 0 105 0;
#X connect 16 0 20 0;
#X connect 17 0 56 0;
#X connect 18 0 19 1;
#X connect 20 0 53 0;
#X connect 20 0 52 0;
#X connect 21 0 39 0;
#X connect 22 0 42 0;
#X connect 23 0 45 0;
#X connect 23 0 21 0;
#X connect 24 0 40 0;
#X connect 25 0 24 0;
#X connect 25 0 44 0;
#X connect 26 0 38 0;
#X connect 27 0 26 0;
#X connect 27 0 46 0;
#X connect 28 0 41 0;
#X connect 29 0 28 0;
#X connect 29 0 47 0;
#X connect 30 0 39 1;
#X connect 31 0 40 1;
#X connect 32 0 38 1;
#X connect 33 0 148 0;
#X connect 34 0 147 0;
#X connect 35 0 41 1;
#X connect 36 0 150 0;
#X connect 37 0 149 0;
#X connect 42 0 33 0;
#X connect 42 0 34 0;
#X connect 42 0 36 0;
#X connect 42 0 37 0;
#X connect 42 0 60 0;
#X connect 42 0 76 0;
#X connect 42 0 79 0;
#X connect 42 0 75 0;
#X connect 42 0 78 0;
#X connect 42 0 87 0;
#X connect 42 0 94 0;
#X connect 42 0 120 0;
#X connect 42 0 140 0;
#X connect 42 0 135 0;
#X connect 42 0 157 0;
#X connect 43 0 1 0;
#X connect 44 0 40 0;
#X connect 45 0 39 0;
#X connect 46 0 38 0;
#X connect 47 0 41 0;
#X connect 48 0 51 0;
#X connect 49 0 50 1;
#X connect 51 0 50 0;
#X connect 52 0 123 0;
#X connect 53 0 124 0;
#X connect 54 0 55 0;
#X connect 55 0 100 0;
#X connect 56 0 19 0;
#X connect 57 0 61 0;
#X connect 58 0 57 0;
#X connect 58 0 62 0;
#X connect 59 0 61 1;
#X connect 60 0 153 0;
#X connect 62 0 61 0;
#X connect 63 0 1 0;
#X connect 64 0 81 0;
#X connect 65 0 89 0;
#X connect 65 0 64 0;
#X connect 66 0 82 0;
#X connect 67 0 66 0;
#X connect 67 0 90 0;
#X connect 68 0 80 0;
#X connect 69 0 68 0;
#X connect 69 0 145 0;
#X connect 70 0 83 0;
#X connect 71 0 70 0;
#X connect 71 0 116 0;
#X connect 72 0 81 1;
#X connect 73 0 82 1;
#X connect 74 0 80 1;
#X connect 75 0 126 0;
#X connect 76 0 125 0;
#X connect 77 0 83 1;
#X connect 78 0 128 0;
#X connect 79 0 127 0;
#X connect 84 0 88 0;
#X connect 85 0 84 0;
#X connect 85 0 101 0;
#X connect 86 0 88 1;
#X connect 87 0 129 0;
#X connect 89 0 81 0;
#X connect 90 0 82 0;
#X connect 91 0 95 0;
#X connect 92 0 91 0;
#X connect 92 0 102 0;
#X connect 93 0 95 1;
#X connect 94 0 130 0;
#X connect 96 0 98 0;
#X connect 98 0 99 0;
#X connect 99 0 97 0;
#X connect 100 0 104 0;
#X connect 101 0 88 0;
#X connect 102 0 95 0;
#X connect 105 0 103 0;
#X connect 106 0 113 0;
#X connect 107 0 112 0;
#X connect 108 0 131 0;
#X connect 108 0 107 0;
#X connect 108 0 115 0;
#X connect 109 0 112 1;
#X connect 111 0 110 0;
#X connect 113 0 144 0;
#X connect 115 0 112 0;
#X connect 116 0 83 0;
#X connect 117 0 121 0;
#X connect 118 0 117 0;
#X connect 118 0 122 0;
#X connect 119 0 121 1;
#X connect 120 0 146 0;
#X connect 122 0 121 0;
#X connect 123 0 50 0;
#X connect 124 0 19 0;
#X connect 125 0 81 0;
#X connect 126 0 82 0;
#X connect 127 0 80 0;
#X connect 128 0 83 0;
#X connect 129 0 88 0;
#X connect 130 0 95 0;
#X connect 131 0 112 0;
#X connect 132 0 136 0;
#X connect 133 0 132 0;
#X connect 133 0 142 0;
#X connect 134 0 136 1;
#X connect 135 0 151 0;
#X connect 137 0 141 0;
#X connect 138 0 137 0;
#X connect 138 0 143 0;
#X connect 139 0 141 1;
#X connect 140 0 152 0;
#X connect 142 0 136 0;
#X connect 143 0 141 0;
#X connect 144 0 112 0;
#X connect 145 0 80 0;
#X connect 146 0 121 0;
#X connect 147 0 39 0;
#X connect 148 0 40 0;
#X connect 149 0 38 0;
#X connect 150 0 41 0;
#X connect 151 0 136 0;
#X connect 152 0 141 0;
#X connect 153 0 61 0;
#X connect 154 0 158 0;
#X connect 155 0 154 0;
#X connect 155 0 160 0;
#X connect 156 0 158 1;
#X connect 157 0 159 0;
#X connect 159 0 158 0;
#X connect 160 0 158 0;
