#N canvas 423 318 450 300 10;
#X obj 234 -13 t b f;
#X obj 182 -12 t b f;
#X obj 20 -32 inlet;
#X obj 182 -34 inlet;
#X obj 234 -33 inlet;
#X obj 20 111 outlet;
#X obj 20 63 sel 1;
#X obj 20 25 expr if (sqrt(pow($f1 \, 2) + pow($f2 \, 2) + pow($f3
\, 2)) > 275 \, 1 \, 0);
#X obj 20 85 del 10;
#X connect 0 0 7 0;
#X connect 0 1 7 2;
#X connect 1 0 7 0;
#X connect 1 1 7 1;
#X connect 2 0 7 0;
#X connect 3 0 1 0;
#X connect 4 0 0 0;
#X connect 6 0 8 0;
#X connect 7 0 6 0;
#X connect 8 0 5 0;
