#N canvas 159 32 1122 746 10;
#X obj 11 565 pix_texture;
#X obj 320 130 bng 15 250 50 0 empty empty empty 0 -6 0 8 -262144 -1
-1;
#X obj 11 585 alpha;
#X obj 69 175 f;
#X floatatom 125 198 5 0 0 0 - - -;
#X obj 10 505 pix_image;
#X obj 11 525 rotateXYZ 0 0 0;
#X msg 122 175 0;
#X obj 119 565 pix_texture;
#X obj 119 585 alpha;
#X obj 118 505 pix_image;
#X obj 119 525 rotateXYZ 0 0 0;
#X obj 225 565 pix_texture;
#X obj 225 585 alpha;
#X obj 283 175 f;
#X floatatom 332 199 5 0 0 0 - - -;
#X obj 224 505 pix_image;
#X obj 225 525 rotateXYZ 0 0 0;
#X obj 95 175 - 1;
#X obj 68 197 sel -359;
#X msg 355 175 0;
#X obj 282 197 sel 360;
#X obj 177 175 f;
#X obj 9 133 metro 100;
#X obj 10 114 tgl 15 0 empty empty empty 17 7 0 10 -262144 -1 -1 1
1;
#X floatatom 233 198 5 0 0 0 - - -;
#X msg 230 175 0;
#X obj 203 175 + 1;
#X obj 176 197 sel 359;
#X obj 310 175 + 0.5;
#X obj 330 564 pix_texture;
#X obj 330 584 alpha;
#X obj 388 174 f;
#X floatatom 450 200 5 0 0 0 - - -;
#X obj 329 504 pix_image;
#X obj 330 524 rotateXYZ 0 0 0;
#X msg 460 174 0;
#X obj 415 173 - 0.5;
#X obj 387 196 sel -360;
#X text 99 55 the greater the size or sphere \; the more segments needed
or it \; breaks up;
#X obj 11 606 sphere 10 65;
#X obj 119 606 sphere 10 65;
#X obj 225 606 sphere 10 65;
#X obj 330 605 sphere 10 65;
#X obj 119 545 rotateXYZ 90 0 0;
#X obj 225 545 rotateXYZ 90 0 0;
#X obj 330 544 rotateXYZ 90 0 0;
#X obj 11 545 rotateXYZ 90 0 0;
#X text 145 118 cloud-circles;
#X text 146 100 rate;
#X obj 60 110 inlet;
#X text 181 100 load;
#X text 103 101 on/off;
#X obj 10 296 separator;
#X obj 118 296 separator;
#X obj 224 296 separator;
#X obj 329 295 separator;
#X obj 10 264 translateXYZ 0 0 0;
#X obj 10 217 gemhead 10;
#X obj 379 112 inlet;
#X obj 418 112 inlet;
#X obj 456 112 inlet;
#X text 214 100 lr---ud---fb;
#X msg 55 585 140;
#X obj 662 400 alpha;
#X obj 719 315 bng 15 250 50 0 empty empty empty 17 7 0 10 -262144
-1 -1;
#X msg 741 312 0;
#X obj 662 380 pix_texture;
#X obj 661 313 pix_film;
#X obj 662 360 rotateXYZ 0 90 0;
#X obj 662 340 rotateXYZ 90 90 0;
#X obj 661 221 separator;
#X msg 678 263 auto 1;
#X msg 128 363 open clouds/pano-clouds1-transp.png;
#X msg 22 318 open clouds/pano-clouds2-transp.png;
#X msg 672 290 open homeGifs/map-like.gif;
#X obj 10 93 inlet;
#X obj 333 111 inlet;
#X msg 341 455 open clouds/pano-clouds5-transp.png;
#X msg 235 409 open clouds/pano-clouds3-transp.png;
#X obj 441 564 pix_texture;
#X obj 441 584 alpha;
#X obj 440 504 pix_image;
#X obj 441 524 rotateXYZ 0 0 0;
#X obj 441 605 sphere 10 65;
#X obj 441 544 rotateXYZ 90 0 0;
#X floatatom 512 641 5 0 0 0 - - -;
#X obj 499 176 f;
#X floatatom 561 202 5 0 0 0 - - -;
#X msg 571 176 0;
#X obj 498 198 sel -360;
#X obj 440 295 separator;
#X obj 160 585 + 35;
#X obj 267 585 + 35;
#X obj 372 584 + 35;
#X obj 482 584 + 35;
#X obj 662 421 sphere 300 65;
#X msg 452 482 open clouds/pano-clouds4-transp.png;
#X obj 526 175 - 1;
#X connect 0 0 2 0;
#X connect 1 0 74 0;
#X connect 1 0 73 0;
#X connect 1 0 79 0;
#X connect 1 0 78 0;
#X connect 1 0 63 0;
#X connect 1 0 75 0;
#X connect 1 0 72 0;
#X connect 1 0 97 0;
#X connect 2 0 40 0;
#X connect 3 0 4 0;
#X connect 3 0 6 2;
#X connect 3 0 18 0;
#X connect 3 0 19 0;
#X connect 5 0 6 0;
#X connect 6 0 47 0;
#X connect 7 0 3 1;
#X connect 8 0 9 0;
#X connect 9 0 41 0;
#X connect 10 0 11 0;
#X connect 11 0 44 0;
#X connect 12 0 13 0;
#X connect 13 0 42 0;
#X connect 14 0 15 0;
#X connect 14 0 17 2;
#X connect 14 0 21 0;
#X connect 14 0 29 0;
#X connect 16 0 17 0;
#X connect 17 0 45 0;
#X connect 18 0 3 1;
#X connect 19 0 7 0;
#X connect 20 0 14 1;
#X connect 21 0 20 0;
#X connect 22 0 25 0;
#X connect 22 0 27 0;
#X connect 22 0 28 0;
#X connect 22 0 11 2;
#X connect 23 0 22 0;
#X connect 23 0 3 0;
#X connect 23 0 14 0;
#X connect 23 0 32 0;
#X connect 23 0 87 0;
#X connect 24 0 23 0;
#X connect 26 0 22 1;
#X connect 27 0 22 1;
#X connect 28 0 26 0;
#X connect 29 0 14 1;
#X connect 30 0 31 0;
#X connect 31 0 43 0;
#X connect 32 0 33 0;
#X connect 32 0 37 0;
#X connect 32 0 38 0;
#X connect 32 0 35 2;
#X connect 34 0 35 0;
#X connect 35 0 46 0;
#X connect 36 0 32 1;
#X connect 37 0 32 1;
#X connect 38 0 36 0;
#X connect 44 0 8 0;
#X connect 45 0 12 0;
#X connect 46 0 30 0;
#X connect 47 0 0 0;
#X connect 50 0 23 1;
#X connect 53 0 5 0;
#X connect 54 0 10 0;
#X connect 55 0 16 0;
#X connect 56 0 34 0;
#X connect 57 0 53 0;
#X connect 57 0 54 0;
#X connect 57 0 55 0;
#X connect 57 0 56 0;
#X connect 57 0 71 0;
#X connect 57 0 91 0;
#X connect 58 0 57 0;
#X connect 59 0 57 1;
#X connect 60 0 57 2;
#X connect 61 0 57 3;
#X connect 63 0 40 1;
#X connect 63 0 92 0;
#X connect 64 0 96 0;
#X connect 65 0 66 0;
#X connect 66 0 68 1;
#X connect 67 0 64 0;
#X connect 68 0 70 0;
#X connect 68 2 65 0;
#X connect 69 0 67 0;
#X connect 70 0 69 0;
#X connect 71 0 68 0;
#X connect 72 0 68 0;
#X connect 73 0 10 0;
#X connect 74 0 5 0;
#X connect 75 0 68 0;
#X connect 76 0 24 0;
#X connect 77 0 1 0;
#X connect 78 0 34 0;
#X connect 79 0 16 0;
#X connect 80 0 81 0;
#X connect 81 0 84 0;
#X connect 82 0 83 0;
#X connect 83 0 85 0;
#X connect 85 0 80 0;
#X connect 87 0 88 0;
#X connect 87 0 90 0;
#X connect 87 0 83 2;
#X connect 87 0 98 0;
#X connect 89 0 87 1;
#X connect 90 0 89 0;
#X connect 91 0 82 0;
#X connect 92 0 41 1;
#X connect 92 0 93 0;
#X connect 93 0 42 1;
#X connect 93 0 94 0;
#X connect 94 0 43 1;
#X connect 94 0 95 0;
#X connect 95 0 84 1;
#X connect 95 0 86 0;
#X connect 97 0 82 0;
#X connect 98 0 87 1;
#X coords 0 -1 1 1 200 40 2 100 100;
