#N canvas 396 93 371 476 10;
#X obj -343 67 soundfiler;
#X floatatom -192 3 10 0 0 0 - - -;
#X obj -343 130 line~;
#X msg -343 -44 set symbol \$1;
#X obj -344 88 pack f f;
#X msg -343 108 0 \, \$1 \$2;
#X obj -272 67 / 44.1;
#X obj -289 5 bng 15 250 50 0 empty empty empty 17 7 0 10 -262144 -1
-1;
#X obj -303 130 table \$0-no1;
#X obj -304 157 tabread~ \$0-no1;
#X obj -343 4 list \$0;
#X msg -343 25 read -resize -raw 128 1 2 b \$1 \$2-no1;
#X obj -343 -64 inlet;
#X obj -269 4 delay 10000;
#X obj -304 181 outlet~;
#X obj -149 -58 loadbang;
#X obj -149 -36 del 25;
#X msg -343 -23 symbol homeGifs/face-two.gif;
#X connect 0 0 4 0;
#X connect 0 0 6 0;
#X connect 0 0 1 0;
#X connect 0 0 13 1;
#X connect 1 0 13 1;
#X connect 2 0 9 0;
#X connect 3 0 17 0;
#X connect 4 0 5 0;
#X connect 4 0 7 0;
#X connect 5 0 2 0;
#X connect 6 0 4 1;
#X connect 7 0 13 0;
#X connect 9 0 14 0;
#X connect 10 0 11 0;
#X connect 11 0 0 0;
#X connect 12 0 3 0;
#X connect 13 0 4 0;
#X connect 15 0 16 0;
#X connect 16 0 17 0;
#X connect 17 0 7 0;
#X connect 17 0 10 0;
