#N canvas -12 143 556 641 10;
#X obj 118 282 sel 1;
#X obj 118 304 symbol;
#X obj 55 252 gemkeyname;
#X obj 20 283 sel 0;
#X obj 20 304 symbol;
#X obj -26 433 t f f;
#X obj -46 476 f;
#X obj -32 456 spigot;
#X obj 15 455 spigot;
#X obj 21 433 t f f;
#X obj 90 434 t f f;
#X obj 70 477 f;
#X obj 84 457 spigot;
#X obj 131 456 spigot;
#X obj 137 434 t f f;
#X obj 202 435 t f f;
#X obj 182 478 f;
#X obj 196 458 spigot;
#X obj 243 457 spigot;
#X obj 249 435 t f f;
#X obj -14 477 + 0;
#X obj 33 477 + 0;
#X obj 102 478 + 0;
#X obj 149 478 + 0;
#X obj 214 479 + 0;
#X obj 261 479 + 0;
#X obj -14 549 outlet;
#X text 120 115 GEM-KEY-NAV;
#X text 101 100 center;
#X obj 132 253 metro;
#X text 145 100 rate;
#X obj 208 231 tgl 10 0 empty empty empty 17 7 0 10 -262144 -1 -1 1
1;
#X obj 159 228 inlet;
#X text 177 100 on/off;
#X obj 43 212 unpack b f f;
#X obj -1 219 del 1;
#X msg -1 239 0;
#X floatatom 108 132 5 0 0 0 - - -;
#X floatatom 143 132 5 0 0 0 - - -;
#X floatatom 178 132 5 0 0 0 - - -;
#X msg 66 176 0 1;
#X obj 118 328 sel d a i k w s;
#X obj 20 328 sel d a i k w s;
#X msg 118 395 -1;
#X msg 146 395 1;
#X msg 181 395 -1;
#X msg 209 395 1;
#X msg 243 395 1;
#X msg 272 395 -1;
#X obj 183 510 * -1;
#X obj -45 500 * -1;
#X obj 70 500 * -1;
#X msg -51 395 0;
#X msg -23 395 0;
#X msg 5 395 0;
#X msg 34 395 0;
#X msg 62 395 0;
#X msg 90 395 0;
#X obj 209 206 inlet;
#X obj 102 549 outlet;
#X obj 214 548 outlet;
#X obj 47 77 inlet;
#X text 104 147 lr ---- ud ---- fb;
#X obj 47 103 del 5;
#X connect 0 0 1 0;
#X connect 1 0 41 0;
#X connect 2 0 0 0;
#X connect 2 0 3 0;
#X connect 2 1 1 1;
#X connect 2 1 4 1;
#X connect 3 0 4 0;
#X connect 4 0 42 0;
#X connect 5 0 20 1;
#X connect 5 1 7 1;
#X connect 6 0 7 0;
#X connect 6 0 8 0;
#X connect 6 0 50 0;
#X connect 7 0 20 0;
#X connect 8 0 21 0;
#X connect 9 0 21 1;
#X connect 9 1 8 1;
#X connect 10 0 22 1;
#X connect 10 1 12 1;
#X connect 11 0 12 0;
#X connect 11 0 13 0;
#X connect 11 0 51 0;
#X connect 12 0 22 0;
#X connect 13 0 23 0;
#X connect 14 0 23 1;
#X connect 14 1 13 1;
#X connect 15 0 24 1;
#X connect 15 1 17 1;
#X connect 16 0 17 0;
#X connect 16 0 18 0;
#X connect 16 0 49 0;
#X connect 17 0 24 0;
#X connect 18 0 25 0;
#X connect 19 0 25 1;
#X connect 19 1 18 1;
#X connect 20 0 6 1;
#X connect 20 0 26 0;
#X connect 21 0 6 1;
#X connect 21 0 26 0;
#X connect 22 0 11 1;
#X connect 22 0 59 0;
#X connect 23 0 11 1;
#X connect 23 0 59 0;
#X connect 24 0 16 1;
#X connect 24 0 60 0;
#X connect 25 0 16 1;
#X connect 25 0 60 0;
#X connect 29 0 6 0;
#X connect 29 0 11 0;
#X connect 29 0 16 0;
#X connect 31 0 29 0;
#X connect 32 0 29 1;
#X connect 34 0 6 0;
#X connect 34 0 11 0;
#X connect 34 0 16 0;
#X connect 34 0 35 0;
#X connect 34 1 7 1;
#X connect 34 1 12 1;
#X connect 34 1 17 1;
#X connect 34 2 6 1;
#X connect 34 2 11 1;
#X connect 34 2 16 1;
#X connect 35 0 36 0;
#X connect 36 0 7 1;
#X connect 36 0 12 1;
#X connect 36 0 17 1;
#X connect 40 0 34 0;
#X connect 41 0 43 0;
#X connect 41 1 44 0;
#X connect 41 2 45 0;
#X connect 41 3 46 0;
#X connect 41 4 47 0;
#X connect 41 5 48 0;
#X connect 42 0 52 0;
#X connect 42 1 53 0;
#X connect 42 2 54 0;
#X connect 42 3 55 0;
#X connect 42 4 56 0;
#X connect 42 5 57 0;
#X connect 43 0 5 0;
#X connect 44 0 9 0;
#X connect 45 0 10 0;
#X connect 46 0 14 0;
#X connect 47 0 15 0;
#X connect 48 0 19 0;
#X connect 49 0 39 0;
#X connect 50 0 37 0;
#X connect 51 0 38 0;
#X connect 52 0 5 0;
#X connect 53 0 9 0;
#X connect 54 0 10 0;
#X connect 55 0 14 0;
#X connect 56 0 15 0;
#X connect 57 0 19 0;
#X connect 58 0 31 0;
#X connect 61 0 63 0;
#X connect 61 0 40 0;
#X connect 63 0 40 0;
#X coords 0 -1 1 1 120 65 2 100 100;
