#N canvas 308 23 723 666 10;
#X obj -33 54 rotateXYZ 0 0 0;
#X obj -23 162 separator;
#X msg -7 307 draw line;
#X msg -15 327 draw fill;
#X obj -23 287 polygon 3;
#X obj -23 207 rotateXYZ 0 0 0;
#X obj -33 376 separator;
#X msg -19 459 draw line;
#X msg -12 479 draw fill;
#X obj -33 418 rotateXYZ 0 0 0;
#X text 179 479 WALLS;
#X obj -33 397 translateXYZ 0 0 0;
#X obj -33 438 rectangle 2 1;
#X obj 83 376 separator;
#X msg 97 459 draw line;
#X msg 104 479 draw fill;
#X obj 83 438 rectangle 2 1;
#X obj 83 418 rotateXYZ 0 90 0;
#X obj 83 397 translateXYZ -2 0 -2;
#X obj 212 376 separator;
#X msg 226 459 draw line;
#X msg 233 479 draw fill;
#X obj 212 418 rotateXYZ 0 0 0;
#X obj 212 438 rectangle 2 1;
#X obj 334 376 separator;
#X msg 348 459 draw line;
#X msg 355 479 draw fill;
#X obj 334 438 rectangle 2 1;
#X obj 334 418 rotateXYZ 0 90 0;
#X obj 334 397 translateXYZ 2 0 -2;
#X obj 212 397 translateXYZ 0 0 -4;
#X msg 28 265 2 2 0;
#X msg -6 226 -0.5 0 0;
#X msg 11 246 4.5 0 0;
#X obj -23 184 translateXYZ -2 1 0;
#X obj 98 162 separator;
#X msg 114 307 draw line;
#X msg 106 327 draw fill;
#X obj 98 287 polygon 3;
#X obj 98 207 rotateXYZ 0 0 0;
#X msg 149 265 2 2 0;
#X msg 115 226 -0.5 0 0;
#X msg 132 246 4.5 0 0;
#X obj 98 184 translateXYZ -2 1 -4;
#X text 188 325 ROOF;
#X obj 225 162 separator;
#X msg 241 325 draw line;
#X msg 233 345 draw fill;
#X obj 225 207 rotateXYZ 0 0 0;
#X obj 225 305 polygon 4;
#X msg 237 226 4.5 0 0;
#X obj 225 184 translateXYZ -2 1 0;
#X msg 263 265 2 2 -4;
#X msg 250 246 4.5 0 -4;
#X msg 276 285 2 2 0;
#X obj 346 162 separator;
#X msg 362 325 draw line;
#X msg 354 345 draw fill;
#X obj 346 207 rotateXYZ 0 0 0;
#X obj 346 305 polygon 4;
#X obj 346 184 translateXYZ -2 1 0;
#X msg 384 265 2 2 -4;
#X msg 397 285 2 2 0;
#X msg 358 226 -0.5 0 0;
#X msg 371 246 -0.5 0 -4;
#X obj 178 20 separator;
#X msg 192 103 draw line;
#X msg 199 123 draw fill;
#X obj 178 62 rotateXYZ 90 0 90;
#X obj 178 82 rectangle 2 0.25;
#X obj 178 41 translateXYZ 2.25 1 -2;
#X obj 317 20 separator;
#X msg 331 103 draw line;
#X msg 338 123 draw fill;
#X obj 317 62 rotateXYZ 90 0 90;
#X obj 317 82 rectangle 2 0.25;
#X obj 317 41 translateXYZ -2.25 1 -2;
#X text 278 104 EAVES;
#X obj 499 376 separator;
#X msg 513 459 draw line;
#X msg 520 479 draw fill;
#X obj 499 438 square 2;
#X obj 499 418 rotateXYZ -90 0 0;
#X obj 499 397 translateXYZ 0 -1 -2;
#X obj 496 78 separator;
#X msg 519 183 draw line;
#X msg 517 203 draw fill;
#X obj 496 142 rotateXYZ -90 0 0;
#X text 568 229 CHIMNEY;
#X text 571 439 FLOOR;
#X obj 496 99 scale 1 0.6 1;
#X obj -32 -37 inlet;
#X obj 425 226 bng 15 250 50 0 empty empty empty 17 7 0 10 -262144
-1 -1;
#X obj 304 227 bng 15 250 50 0 empty empty empty 17 7 0 10 -262144
-1 -1;
#X obj 177 227 bng 15 250 50 0 empty empty empty 17 7 0 10 -262144
-1 -1;
#X obj 56 227 bng 15 250 50 0 empty empty empty 17 7 0 10 -262144 -1
-1;
#X obj 412 144 loadbang;
#X obj -32 -14 separator;
#X obj -33 32 translateXYZ 0 -0.75 2;
#X obj 494 233 separator;
#X msg 517 318 draw line;
#X msg 515 338 draw fill;
#X obj 494 277 rotateXYZ -90 0 0;
#X obj 494 298 circle 0.49;
#X obj 496 162 cylinder 0.5 15;
#X obj -32 9 scale 4 4 4;
#X obj 496 121 translateXYZ 0 4.85 -2;
#X obj 494 256 translateXYZ 0 3.19 -2;
#X connect 0 0 6 0;
#X connect 0 0 13 0;
#X connect 0 0 24 0;
#X connect 0 0 19 0;
#X connect 0 0 1 0;
#X connect 0 0 35 0;
#X connect 0 0 45 0;
#X connect 0 0 55 0;
#X connect 0 0 65 0;
#X connect 0 0 71 0;
#X connect 0 0 78 0;
#X connect 0 0 84 0;
#X connect 0 0 99 0;
#X connect 1 0 34 0;
#X connect 2 0 4 0;
#X connect 3 0 4 0;
#X connect 5 0 4 0;
#X connect 6 0 11 0;
#X connect 7 0 12 0;
#X connect 8 0 12 0;
#X connect 9 0 12 0;
#X connect 11 0 9 0;
#X connect 13 0 18 0;
#X connect 14 0 16 0;
#X connect 15 0 16 0;
#X connect 17 0 16 0;
#X connect 18 0 17 0;
#X connect 19 0 30 0;
#X connect 20 0 23 0;
#X connect 21 0 23 0;
#X connect 22 0 23 0;
#X connect 24 0 29 0;
#X connect 25 0 27 0;
#X connect 26 0 27 0;
#X connect 28 0 27 0;
#X connect 29 0 28 0;
#X connect 30 0 22 0;
#X connect 31 0 4 3;
#X connect 32 0 4 1;
#X connect 33 0 4 2;
#X connect 34 0 5 0;
#X connect 35 0 43 0;
#X connect 36 0 38 0;
#X connect 37 0 38 0;
#X connect 39 0 38 0;
#X connect 40 0 38 3;
#X connect 41 0 38 1;
#X connect 42 0 38 2;
#X connect 43 0 39 0;
#X connect 45 0 51 0;
#X connect 46 0 49 0;
#X connect 47 0 49 0;
#X connect 48 0 49 0;
#X connect 50 0 49 1;
#X connect 51 0 48 0;
#X connect 52 0 49 3;
#X connect 53 0 49 2;
#X connect 54 0 49 4;
#X connect 55 0 60 0;
#X connect 56 0 59 0;
#X connect 57 0 59 0;
#X connect 58 0 59 0;
#X connect 60 0 58 0;
#X connect 61 0 59 3;
#X connect 62 0 59 4;
#X connect 63 0 59 1;
#X connect 64 0 59 2;
#X connect 65 0 70 0;
#X connect 66 0 69 0;
#X connect 67 0 69 0;
#X connect 68 0 69 0;
#X connect 70 0 68 0;
#X connect 71 0 76 0;
#X connect 72 0 75 0;
#X connect 73 0 75 0;
#X connect 74 0 75 0;
#X connect 76 0 74 0;
#X connect 78 0 83 0;
#X connect 79 0 81 0;
#X connect 80 0 81 0;
#X connect 82 0 81 0;
#X connect 83 0 82 0;
#X connect 84 0 90 0;
#X connect 85 0 104 0;
#X connect 86 0 104 0;
#X connect 87 0 104 0;
#X connect 90 0 106 0;
#X connect 91 0 97 0;
#X connect 92 0 63 0;
#X connect 92 0 64 0;
#X connect 92 0 61 0;
#X connect 92 0 62 0;
#X connect 93 0 50 0;
#X connect 93 0 53 0;
#X connect 93 0 52 0;
#X connect 93 0 54 0;
#X connect 94 0 41 0;
#X connect 94 0 42 0;
#X connect 94 0 40 0;
#X connect 95 0 32 0;
#X connect 95 0 33 0;
#X connect 95 0 31 0;
#X connect 96 0 92 0;
#X connect 96 0 93 0;
#X connect 96 0 94 0;
#X connect 96 0 95 0;
#X connect 97 0 105 0;
#X connect 98 0 0 0;
#X connect 99 0 107 0;
#X connect 100 0 103 0;
#X connect 101 0 103 0;
#X connect 102 0 103 0;
#X connect 105 0 98 0;
#X connect 106 0 87 0;
#X connect 107 0 102 0;
