#N canvas 102 95 1146 755 10;
#X obj 397 -335 gemkeyboard;
#X obj 397 -294 f;
#X obj 423 -294 + 1;
#X obj 397 -273 % 2;
#X obj 9 -233 separator;
#X msg 9 169 justify left base;
#X obj 41 -1 separator;
#X obj 253 -311 gemhead 1;
#X obj 15 -170 r \$0-bang;
#X obj 3 148 r \$0-bang;
#X obj 103 -313 s \$0-bang;
#X obj 421 -145 r \$0-bang;
#X msg 7 332 justify left base;
#X obj 1 311 r \$0-bang;
#X msg 161 108 justify left base;
#X obj 155 87 r \$0-bang;
#X msg 163 273 justify left base;
#X obj 157 252 r \$0-bang;
#X obj 387 -228 separator;
#X obj 575 0 separator;
#X obj 392 -20 r \$0-bang;
#X msg 564 174 justify left base;
#X obj 558 153 r \$0-bang;
#X obj 558 316 r \$0-bang;
#X msg 719 113 justify left base;
#X obj 713 92 r \$0-bang;
#X msg 723 276 justify left base;
#X obj 717 255 r \$0-bang;
#X obj 42 -129 r \$0-fntsz3;
#X obj 741 318 r \$0-fntsz2;
#X obj 738 154 r \$0-fntsz2;
#X obj 28 209 r \$0-fntsz2;
#X obj 26 372 r \$0-fntsz2;
#X obj 179 149 r \$0-fntsz2;
#X obj 582 215 r \$0-fntsz2;
#X obj 582 380 r \$0-fntsz2;
#X obj 419 19 r \$0-fntsz1;
#X obj 448 -105 r \$0-fntsz1;
#X obj 9 -268 s \$0-fntsz1;
#X obj 86 -268 s \$0-fntsz2;
#X obj 162 -267 s \$0-fntsz3;
#X obj -8 270 separator;
#X obj -6 108 separator;
#X obj 181 314 r \$0-fntsz2;
#X obj 147 210 separator;
#X obj 146 45 separator;
#X obj 387 -61 separator;
#X obj 549 275 separator;
#X obj 707 214 separator;
#X obj 549 110 separator;
#X obj 704 50 separator;
#X obj 415 -186 separator;
#X obj 177 -235 separator;
#X obj 183 -173 r \$0-bang;
#X obj 210 -131 r \$0-fntsz3;
#X msg 421 -125 text NAVIGATION;
#X msg 183 -152 text WHERE YOU WILL NEVER FIND;
#X msg 15 -149 text IT IS HARD TO GET TO;
#X msg 153 129 text i/k corresponds to up/down;
#X msg 392 0 text CONTROLS/INFO;
#X obj 386 39 text3d;
#X obj 415 -85 text3d;
#X obj 146 168 text3d;
#X obj -6 229 text3d;
#X obj -8 392 text3d;
#X obj 9 -108 text3d;
#X obj 177 -110 text3d;
#X obj 549 399 text3d;
#X obj 708 337 text3d;
#X obj 549 235 text3d;
#X obj 704 174 text3d;
#X msg 153 294 text when cursor appears: click [spacebar] for interaction
;
#X obj 148 333 text3d;
#X obj 397 -315 select 35;
#X msg 162 -288 10;
#X obj 9 -85 separator;
#X obj 9 -44 translateXYZ 0 0 -1.25;
#X obj 41 19 colorRGB 0.25 0 1 1;
#X obj 9 -192 colorRGB 0.02 1 0.631 1;
#X obj 177 -194 colorRGB 0.02 1 0.631 1;
#X msg 86 -289 4;
#X msg 9 -289 6;
#X msg 564 337 justify left base;
#X obj 575 20 colorRGB 0.25 0 1 1;
#X obj 159 -79 separator;
#X obj 159 -58 colorRGB 0.004 0.804 0.996 1;
#X obj 387 -207 colorRGB 0.02 1 0.631 1;
#X obj 9 -65 colorRGB 1 0 0.5 0.7;
#X obj 159 -35 translateXYZ 0 -1.05 -1.15;
#X msg 713 297 text click [ESC] at any time to exit full screen mode
;
#X obj 505 -315 bibliography;
#X obj 238 -339 r \$0-bang;
#X msg 555 194 text click [p] at any time to toggle these instructions
;
#X msg 554 358 text click [b] from the instructions to toggle bibliography
;
#X msg 0 189 text w/s corresponds to forward/backward;
#X msg -3 353 text a/d corresponds to left/right;
#X msg 711 134 text click [=] at any time to restart the environment
;
#X obj 658 -246 separator;
#X msg 673 -141 justify left base;
#X obj 667 -162 r \$0-bang;
#X obj 776 -59 r \$0-bang;
#X obj 691 -100 r \$0-fntsz2;
#X obj 800 5 r \$0-fntsz2;
#X obj 767 -100 separator;
#X obj 658 -205 separator;
#X obj 767 24 text3d;
#X obj 658 -80 text3d;
#X msg 782 -38 justify left base;
#X obj 658 -226 colorRGB 0.25 0 1 1;
#X obj 409 109 r \$0-bang;
#X obj 436 148 r \$0-fntsz1;
#X obj 404 68 separator;
#X obj 403 168 text3d;
#X msg 409 129 text GAMEPLAY;
#X obj 9 -213 translateXYZ 0 3.5 -1;
#X obj 177 -215 translateXYZ 0 2.75 -1;
#X obj 9 -22 rectangle 7 4.5;
#X obj 159 -15 rectangle 4 2.8;
#X msg 664 -121 text 12 houses are floating in the clouds of possibility
;
#X msg 772 -16 text feel free to explore and interact with them;
#X obj 658 -183 translateXYZ -3.5 0.7 -1;
#X obj 767 -80 translateXYZ -3.5 0.4 -1;
#X obj 386 -40 translateXYZ 0 -1.9 -1;
#X obj 403 89 translateXYZ 0 1.3 -1;
#X obj 708 234 translateXYZ -3.5 -3.4 -1;
#X obj 704 71 translateXYZ -3.5 -3.1 -1;
#X obj 549 295 translateXYZ -3.5 -2.8 -1;
#X obj 549 132 translateXYZ -3.5 -2.5 -1;
#X obj 415 -165 translateXYZ 0 0 -1;
#X obj -6 128 translateXYZ -3.5 -0.6 -1;
#X obj -8 290 translateXYZ -3.5 -0.9 -1;
#X obj 146 66 translateXYZ -3.5 -1.2 -1;
#X obj 148 231 translateXYZ -3.5 -1.5 -1;
#X obj 6 -338 inlet;
#X obj 333 -339 t b b;
#X obj 253 -290 spigot;
#X msg 363 -316 0;
#X connect 0 0 73 0;
#X connect 1 0 2 0;
#X connect 1 0 3 0;
#X connect 2 0 1 1;
#X connect 3 0 90 0;
#X connect 3 0 135 1;
#X connect 4 0 114 0;
#X connect 5 0 63 0;
#X connect 6 0 77 0;
#X connect 7 0 135 0;
#X connect 8 0 57 0;
#X connect 9 0 94 0;
#X connect 9 0 5 0;
#X connect 11 0 55 0;
#X connect 12 0 64 0;
#X connect 13 0 12 0;
#X connect 13 0 95 0;
#X connect 14 0 62 0;
#X connect 15 0 14 0;
#X connect 15 0 58 0;
#X connect 16 0 72 0;
#X connect 17 0 16 0;
#X connect 17 0 71 0;
#X connect 18 0 86 0;
#X connect 19 0 83 0;
#X connect 20 0 59 0;
#X connect 21 0 69 0;
#X connect 22 0 92 0;
#X connect 22 0 21 0;
#X connect 23 0 82 0;
#X connect 23 0 93 0;
#X connect 24 0 70 0;
#X connect 25 0 24 0;
#X connect 25 0 96 0;
#X connect 26 0 68 0;
#X connect 27 0 26 0;
#X connect 27 0 89 0;
#X connect 28 0 65 1;
#X connect 29 0 68 1;
#X connect 30 0 70 1;
#X connect 31 0 63 1;
#X connect 32 0 64 1;
#X connect 33 0 62 1;
#X connect 34 0 69 1;
#X connect 35 0 67 1;
#X connect 36 0 60 1;
#X connect 37 0 61 1;
#X connect 41 0 130 0;
#X connect 42 0 129 0;
#X connect 43 0 72 1;
#X connect 44 0 132 0;
#X connect 45 0 131 0;
#X connect 46 0 122 0;
#X connect 47 0 126 0;
#X connect 48 0 124 0;
#X connect 49 0 127 0;
#X connect 50 0 125 0;
#X connect 51 0 128 0;
#X connect 52 0 115 0;
#X connect 53 0 56 0;
#X connect 54 0 66 1;
#X connect 55 0 61 0;
#X connect 56 0 66 0;
#X connect 57 0 65 0;
#X connect 58 0 62 0;
#X connect 59 0 60 0;
#X connect 71 0 72 0;
#X connect 73 0 1 0;
#X connect 74 0 40 0;
#X connect 75 0 87 0;
#X connect 76 0 116 0;
#X connect 77 0 41 0;
#X connect 77 0 42 0;
#X connect 77 0 44 0;
#X connect 77 0 45 0;
#X connect 78 0 65 0;
#X connect 79 0 66 0;
#X connect 80 0 39 0;
#X connect 81 0 38 0;
#X connect 82 0 67 0;
#X connect 83 0 50 0;
#X connect 83 0 48 0;
#X connect 83 0 49 0;
#X connect 83 0 47 0;
#X connect 84 0 85 0;
#X connect 85 0 88 0;
#X connect 86 0 46 0;
#X connect 86 0 51 0;
#X connect 86 0 111 0;
#X connect 87 0 76 0;
#X connect 88 0 117 0;
#X connect 89 0 68 0;
#X connect 91 0 134 0;
#X connect 92 0 69 0;
#X connect 93 0 67 0;
#X connect 94 0 63 0;
#X connect 95 0 64 0;
#X connect 96 0 70 0;
#X connect 97 0 108 0;
#X connect 98 0 106 0;
#X connect 99 0 118 0;
#X connect 99 0 98 0;
#X connect 100 0 107 0;
#X connect 100 0 119 0;
#X connect 101 0 106 1;
#X connect 102 0 105 1;
#X connect 103 0 121 0;
#X connect 104 0 120 0;
#X connect 107 0 105 0;
#X connect 108 0 104 0;
#X connect 108 0 103 0;
#X connect 109 0 113 0;
#X connect 110 0 112 1;
#X connect 111 0 123 0;
#X connect 113 0 112 0;
#X connect 114 0 78 0;
#X connect 115 0 79 0;
#X connect 118 0 106 0;
#X connect 119 0 105 0;
#X connect 120 0 106 0;
#X connect 121 0 105 0;
#X connect 122 0 60 0;
#X connect 123 0 112 0;
#X connect 124 0 68 0;
#X connect 125 0 70 0;
#X connect 126 0 67 0;
#X connect 127 0 69 0;
#X connect 128 0 61 0;
#X connect 129 0 63 0;
#X connect 130 0 64 0;
#X connect 131 0 62 0;
#X connect 132 0 72 0;
#X connect 133 0 10 0;
#X connect 133 0 81 0;
#X connect 133 0 80 0;
#X connect 133 0 74 0;
#X connect 134 0 1 0;
#X connect 134 1 136 0;
#X connect 135 0 18 0;
#X connect 135 0 4 0;
#X connect 135 0 6 0;
#X connect 135 0 19 0;
#X connect 135 0 52 0;
#X connect 135 0 75 0;
#X connect 135 0 84 0;
#X connect 135 0 97 0;
#X connect 136 0 1 0;
