#N canvas 520 121 363 419 10;
#N canvas 599 201 678 275 note_seq 0;
#X msg 38 -35 88;
#X msg 72 -35 81;
#X msg 112 -35 74;
#X msg 158 -34 67;
#X msg 202 -34 60;
#X msg 248 -34 88;
#X msg 292 -35 81;
#X msg 337 -36 74;
#X msg 384 -34 67;
#X msg 435 -34 60;
#X msg 488 -34 52;
#X msg 546 -33 45;
#X obj 72 -59 del 8;
#X obj 112 -59 del 25;
#X obj 158 -59 del 42;
#X obj 202 -59 del 50;
#X obj 248 -60 del 58;
#X obj 292 -59 del 75;
#X obj 337 -59 del 92;
#X obj 384 -58 del 109;
#X obj 435 -58 del 126;
#X obj 488 -59 del 143;
#X obj 546 -59 del 156;
#X obj 131 -153 t b b b b b b b b b b b b;
#X obj 132 48 outlet;
#X obj 131 -179 inlet;
#X connect 0 0 24 0;
#X connect 1 0 24 0;
#X connect 2 0 24 0;
#X connect 3 0 24 0;
#X connect 4 0 24 0;
#X connect 5 0 24 0;
#X connect 6 0 24 0;
#X connect 7 0 24 0;
#X connect 8 0 24 0;
#X connect 9 0 24 0;
#X connect 10 0 24 0;
#X connect 11 0 24 0;
#X connect 12 0 1 0;
#X connect 13 0 2 0;
#X connect 14 0 3 0;
#X connect 15 0 4 0;
#X connect 16 0 5 0;
#X connect 17 0 6 0;
#X connect 18 0 7 0;
#X connect 19 0 8 0;
#X connect 20 0 9 0;
#X connect 21 0 10 0;
#X connect 22 0 11 0;
#X connect 23 0 0 0;
#X connect 23 1 12 0;
#X connect 23 2 13 0;
#X connect 23 3 14 0;
#X connect 23 4 15 0;
#X connect 23 5 16 0;
#X connect 23 6 17 0;
#X connect 23 7 18 0;
#X connect 23 8 19 0;
#X connect 23 9 20 0;
#X connect 23 10 21 0;
#X connect 23 11 22 0;
#X connect 25 0 23 0;
#X restore 9 -265 pd note_seq;
#X obj 9 -210 sig~;
#X obj 9 -238 mtof;
#X obj 9 -183 tabosc4~ \$0-sqr;
#X obj 9 -71 *~;
#N canvas 830 39 255 300 envelope 0;
#X obj 18 -297 envgen 200 140 1 0  ;
#X obj 59 -368 loadbang;
#X obj 16 -137 line~;
#X obj 16 -336 inlet;
#X obj 16 -104 outlet~;
#X msg 59 -337 0 5 1 159 1 5 0;
#X connect 0 0 2 0;
#X connect 1 0 5 0;
#X connect 2 0 4 0;
#X connect 3 0 0 0;
#X connect 5 0 0 0;
#X restore 28 -95 pd envelope;
#X obj 9 -317 t b b b;
#X obj 9 -352 metro 281;
#X text 100 -132 2980Hz bandwidth 54;
#X obj 9 -151 biquad~ 1.68669 -0.851069 0.0410957 0.0821914 0.0410957
;
#N canvas 845 22 164 186 thrice 0;
#X obj 12 -245 f;
#X obj 43 -246 + 1;
#X obj 12 -192 sel 1;
#X obj 12 -166 bng 15 250 50 0 empty empty empty 17 7 0 10 -262144
-1 -1;
#X msg 105 -151 0;
#X obj 12 -275 inlet;
#X obj 105 -125 outlet;
#X obj 12 -216 div 2;
#X connect 0 0 1 0;
#X connect 0 0 7 0;
#X connect 1 0 0 1;
#X connect 2 0 3 0;
#X connect 3 0 4 0;
#X connect 4 0 0 1;
#X connect 4 0 6 0;
#X connect 5 0 0 0;
#X connect 7 0 2 0;
#X restore 48 -291 pd thrice;
#N canvas 792 22 396 106 wave 0;
#X obj 13 -413 loadbang;
#X obj 72 -413 table \$0-sqr 2051;
#X msg 13 -367 \; \$1-sqr sinesum 2051 1 0 0.333 0 0.2 0 0.1429 0 0.111
0 0.09 0 0.077 0 0.067 0 0.059 0 0.053 0 0.048;
#X obj 13 -390 \$0;
#X connect 0 0 3 0;
#X connect 3 0 2 0;
#X restore 6 -408 pd wave;
#X obj 9 -122 tanh~;
#X obj 9 -39 outlet~;
#X obj 6 -381 inlet;
#X connect 0 0 2 0;
#X connect 1 0 3 0;
#X connect 2 0 1 0;
#X connect 3 0 9 0;
#X connect 4 0 13 0;
#X connect 5 0 4 1;
#X connect 6 0 0 0;
#X connect 6 1 5 0;
#X connect 6 2 10 0;
#X connect 7 0 6 0;
#X connect 9 0 12 0;
#X connect 10 0 7 0;
#X connect 12 0 4 0;
#X connect 14 0 7 0;
