#N canvas 368 23 1276 748 10;
#X obj 136 198 gem-key-nav;
#X obj 136 267 s lr;
#X obj 182 267 s ud;
#X msg 160 175 75;
#X obj 137 -158 r lr;
#X obj 168 -158 r ud;
#X obj 29 -135 cloud-circles;
#X msg 68 -158 100;
#X obj 228 267 s fb;
#X obj 200 -158 r fb;
#X obj 29 -179 loadbang;
#X obj 175 124 loadbang;
#X obj -72 -179 gemwin;
#X msg -42 -225 color 0.8 0.8 0.8;
#X obj 101 -272 gemkeyboard;
#X obj 101 -251 sel 53;
#X msg 109 -228 0 \, destroy \, reset;
#X msg 101 -207 cursor 1 \, menubar 1;
#X obj -61 -318 t b b;
#X msg -72 -292 dimen 1440 900 \, cursor 0 \, menubar 0 \, fullscreen
1;
#X obj -1 -340 bng 40 250 50 0 empty empty empty 17 7 0 10 -258113
-1 -1;
#X msg -61 -271 offset -125 15 \, create \, 1;
#X obj -28 3 sound-proc;
#X obj -60 194 v homes;
#X obj -60 305 sel 0;
#X obj -72 106 loadbang;
#X text -74 424 starts world & resets \; when all houses found;
#X floatatom -60 284 5 0 0 0 - - -;
#X obj -60 220 - 1;
#X msg -60 241 \$1;
#X obj -60 262 v homes;
#X obj -29 148 r \$0-homesBang;
#X obj -29 170 t b b;
#X obj -28 241 bng 15 250 50 0 empty empty empty 17 7 0 10 -262144
-1 -1;
#X text -12 202 when home deleted \; subtracts 1 from \; current #
of homes;
#X obj 275 -206 r lr;
#X obj 306 -206 r ud;
#X obj 338 -206 r fb;
#X msg 291 -332 open homeGifs/dk-blue-flower.gif;
#X msg 372 -206 text - Michel Foucault;
#X msg 328 -291 text individuals in space...Discipline sometimes requires
;
#X msg 339 -270 text enclosure. The specification of a place heterogeneous
;
#X msg 350 -249 text and closed in upon itself. It is the protected
place;
#X msg 362 -227 text of disciplinary monotony.;
#X obj 486 -146 s \$0-homesBang;
#X obj 275 -185 a-home-v6;
#X obj 97 -22 r~ toSND3;
#X obj -28 -22 r~ toSND1;
#X obj 34 -22 r~ toSND2;
#X obj 286 20 r lr;
#X obj 317 20 r ud;
#X obj 349 20 r fb;
#X obj 498 82 s \$0-homesBang;
#X obj 432 82 s~ toSND2;
#X obj 421 -146 s~ toSND1;
#X msg 288 -102 open homeGifs/face-two.gif;
#X obj 281 253 r lr;
#X obj 312 253 r ud;
#X obj 344 253 r fb;
#X obj 493 314 s \$0-homesBang;
#X obj 427 314 s~ toSND3;
#X msg 205 165 \; pd dsp \$1;
#X obj 204 145 tgl 15 0 empty empty empty 17 7 0 10 -262144 -1 -1 1
1;
#X msg 384 20 text - Henri Lefebvre;
#X msg 323 -60 text self-destruction - the aim is now creative: a love
- a;
#X msg 311 -81 text Instead of a paroxystic moment of destruction or
;
#X msg 355 -22 text goes beyond them - is the yeast that causes this
;
#X msg 370 -1 text rather lifeless dough to rise.;
#X msg 336 -41 text being - or a work... Desire - which precedes needs
and;
#X msg 317 -312 text Discipline proceeds from the distribution of;
#X msg 321 146 text To those focused on polemics against the normal
we;
#X msg 332 167 text caution - in the light of our history - that critique
;
#X msg 343 188 text does not undermine the function of the normal;
#X msg 354 209 text but on the contrary often contributes to its;
#X msg 366 231 text power and ubiquity.;
#X msg 376 253 text - Peter Cryle and Elizabeth Stephens;
#X text 41 -335 click here to enter;
#X text 41 -323 fullscreen mode;
#X obj 686 -205 r lr;
#X obj 717 -205 r ud;
#X obj 749 -205 r fb;
#X obj 897 -145 s \$0-homesBang;
#X msg 290 126 open homeGifs/lft-grid.gif;
#X msg 702 -331 open homeGifs/hat-lady.gif;
#X obj 697 71 r lr;
#X obj 728 71 r ud;
#X obj 760 71 r fb;
#X obj 908 131 s \$0-homesBang;
#X obj 685 275 r lr;
#X obj 727 298 r ud;
#X obj 759 298 r fb;
#X obj 907 358 s \$0-homesBang;
#X msg 702 -101 open homeGifs/limey-green.gif;
#X msg 712 172 open homeGifs/blue-white-grid.gif;
#X obj -61 -340;
#X obj 275 -147 models/tv;
#X obj 286 81 models/fish-price;
#X obj 281 313 models/clothespin;
#X obj 696 357 models/sofa;
#X obj 697 130 models/easel;
#X obj 686 -146 models/bike;
#X obj 1086 -205 r lr;
#X obj 1117 -205 r ud;
#X obj 1149 -205 r fb;
#X obj 1297 -145 s \$0-homesBang;
#X obj 1086 25 r lr;
#X obj 1117 25 r ud;
#X obj 1149 25 r fb;
#X obj 1297 85 s \$0-homesBang;
#X obj 1073 302 r lr;
#X obj 1104 302 r ud;
#X obj 1136 302 r fb;
#X obj 1284 362 s \$0-homesBang;
#X obj 1486 -194 r lr;
#X obj 1517 -194 r ud;
#X obj 1549 -194 r fb;
#X obj 1698 -134 s \$0-homesBang;
#X obj 1486 63 r lr;
#X obj 1517 63 r ud;
#X obj 1549 63 r fb;
#X obj 1698 123 s \$0-homesBang;
#X obj 1485 326 r lr;
#X obj 1516 326 r ud;
#X obj 1548 326 r fb;
#X obj 1697 386 s \$0-homesBang;
#X obj 1086 -146 models/bear;
#X obj 1086 84 models/piano;
#X obj 1073 361 models/lemonade;
#X obj 1486 -135 models/cat;
#X obj 1486 122 models/teacup;
#X obj 1485 385 models/laptop;
#X msg 1102 -331 open homeGifs/green-surge.gif;
#X msg 1089 126 open homeGifs/yellow-strips.gif;
#X msg 1102 -101 open homeGifs/terrazo-mosaic.gif;
#X msg 1502 -331 open homeGifs/dark-putty-squares.gif;
#X msg 1502 -90 open homeGifs/gray-ceiling.gif;
#X msg 1501 164 open homeGifs/turquoise-grey.gif;
#X obj 843 131 s~ toSND5;
#X obj 832 -145 s~ toSND4;
#X obj 842 358 s~ toSND6;
#X obj 1232 -145 s~ toSND7;
#X obj 1232 85 s~ toSND8;
#X obj 1219 362 s~ toSND9;
#X obj 1632 -134 s~ toSND10;
#X obj 1632 123 s~ toSND11;
#X obj 1631 386 s~ toSND12;
#X obj -18 -42 r~ toSND4;
#X obj 44 -42 r~ toSND5;
#X obj 107 -42 r~ toSND6;
#X obj 97 -62 r~ toSND9;
#X obj 34 -62 r~ toSND8;
#X obj -28 -62 r~ toSND7;
#X obj -18 -82 r~ toSND10;
#X obj 50 -82 r~ toSND11;
#X obj 119 -82 r~ toSND12;
#X msg -60 173 12;
#X text -57 -359 IT IS HARD TO GET TO WHERE YOU WILL NEVER FIND;
#X msg 1128 -311 text Militant home life - localized pleasures - can't
be;
#X msg 1139 -290 text interpreted through the window. Significance
is on the;
#X msg 1150 -269 text pink wall with irregular pulsations of light.
A little;
#X msg 1161 -248 text cloud of dust stops for a moment outside the
door;
#X msg 1173 -226 text straining at its hinges.;
#X msg 1183 -205 text - Aaron Shurin;
#X msg 783 -205 text - Gary Sullivan;
#X msg 773 -226 text because it likes the sound.;
#X msg 761 -248 text we - welcoming the indistinct - unlocks the door
;
#X msg 750 -268 text lies in the corner between two windows. Such that
;
#X msg 739 -290 text The aim of constructive uncertainty;
#X msg 728 -311 text 1;
#X obj -65 -132 instructions;
#X msg 738 192 text between the object and the floor;
#X msg 749 213 text the couch is a pedestal and a shawl;
#X msg 760 234 text and just woke up her hair. she never;
#X msg 771 255 text ever leaves the floating other house;
#X msg 783 277 text but through some stories they call.;
#X msg 793 298 text - Fred Moten;
#X msg 1527 -70 text [T]he tradition of the opppressed teaches us that
the;
#X msg 1539 -49 text 'state of emergency' in which we live is not the
;
#X msg 1550 -28 text exception but the rule. We must attain a conception
that;
#X msg 1561 6 text is in keeping with this insight. Then we shall clearly
;
#X msg 1573 28 text realize that it is our task to bring about a 'real'
state emergency.;
#X msg 1583 63 text - Walter Benjamin;
#X msg 794 71 text - C. Riley Snorton;
#X msg 1527 185 text There is no self that is prior to the convergence
or;
#X msg 1537 206 text who maintains 'integrity' prior to its entrance
into;
#X msg 1549 239 text this conflicted cultural field. There is only
a taking;
#X msg 1560 272 text up of tools where they lie - where the very 'taking
up';
#X msg 1572 305 text is enabled by the tools lying there.;
#X msg 1582 326 text - Judith Butler;
#X msg 1128 -81 text To stay in one's room away from the place;
#X msg 1139 -60 text the party is given - or away from where the;
#X msg 1150 -39 text practioner attends his client - is to stay;
#X msg 1161 -18 text away from where reality is being performed.;
#X msg 1173 5 text The world - in truth - is a wedding;
#X msg 1183 25 text - Erving Goffman;
#X msg 1528 -311 text As 'passing' became a term to describe performing
;
#X msg 1539 -290 text something one is not - it trafficked a way of
thinking;
#X msg 1550 -269 text about identity not only in terms of real versus
;
#X msg 1561 -237 text artificial but also - and perhaps always -;
#X msg 1573 -215 text as proximal and performative.;
#X msg 1583 -194 text - C. Riley Snorton;
#X msg 728 -81 text As passing is commonly understood - one ascends
into privilege -;
#X msg 739 -49 text being - distinction - or into the converse of those
things - which;
#X msg 750 -16 text is to say - fungibility - thingness - the interchangeable...
;
#X msg 761 17 text blackness functions as the possibility of distinction
in which fungibility;
#X msg 784 50 text acts as the requisite grounds from which distinction
is forged.;
#X obj 51 313 gemkeyboard;
#X text 50 283 click = to reset \; game at any time;
#X obj 51 335 sel 24;
#X obj 136 104 r \$0-initbang;
#X obj -60 127 r \$0-initbang;
#X obj -72 409 s \$0-initbang;
#X obj 258 -123 r \$0-initbang;
#X obj 260 105 r \$0-initbang;
#X obj 266 -353 r \$0-initbang;
#X obj 677 -352 r \$0-initbang;
#X obj 677 -122 r \$0-initbang;
#X obj 687 151 r \$0-initbang;
#X obj 1064 105 r \$0-initbang;
#X obj 1077 -122 r \$0-initbang;
#X obj 1077 -352 r \$0-initbang;
#X obj 1477 -352 r \$0-initbang;
#X obj 1477 -111 r \$0-initbang;
#X obj 1476 143 r \$0-initbang;
#X obj 250 364 r lr;
#X obj 389 343 r ud;
#X obj 556 345 r fb;
#X text 285 359 if out of bounds;
#X obj 250 420 sel 1;
#X obj 389 363 t b f;
#X obj 556 365 t b f;
#X msg 1115 146 text It is my hypothesis that there is nothing inevitable
about the;
#X msg 1126 181 text bureaucratic self-mutilation of a subject group
or its unconscious resort;
#X msg 1160 281 text irrationality and death and the otherness of the
other.;
#X msg 1170 302 text - Felix Guattari;
#X msg 1147 249 text They depend on an acceptance of the risk of having
to confront;
#X msg 1137 215 text to mechanisms that militate against its potential
transversality.;
#X obj -50 329 all-found-sign;
#X obj 250 441 s \$0-center;
#X obj 142 84 r \$0-center;
#X msg -53 -247 perspec -1 1 -1 1 1 600;
#X obj 286 43 a-home-v6;
#X obj 281 275 a-home-v6;
#X obj 686 -184 a-home-v6;
#X obj 697 92 a-home-v6;
#X obj 696 319 a-home-v6;
#X obj 1086 -184 a-home-v6;
#X obj 1086 46 a-home-v6;
#X obj 1073 323 a-home-v6;
#X obj 1486 -173 a-home-v6;
#X obj 1486 84 a-home-v6;
#X obj 1485 347 a-home-v6;
#X obj 250 386 expr if (sqrt(pow($f1 \, 2) + pow($f2 \, 2) + pow($f3
\, 2)) > 300 \, 1 \, 0);
#X obj 26 109 dac~;
#X obj 62 358 s \$0-sndOff;
#X obj 41 3 r \$0-sndOff;
#X obj 84 23 del 200;
#X obj 60 88 *~;
#X obj 26 88 *~;
#X obj 41 66 line~;
#X obj 124 43 loadbang;
#X msg 84 43 1 35;
#X msg 41 24 0 35;
#X obj 56 378 del 40;
#X obj -65 -156 r \$0-initbang;
#X obj -60 351 del 60005;
#X connect 0 0 1 0;
#X connect 0 1 2 0;
#X connect 0 2 8 0;
#X connect 3 0 0 1;
#X connect 4 0 6 3;
#X connect 5 0 6 4;
#X connect 7 0 6 1;
#X connect 9 0 6 5;
#X connect 10 0 7 0;
#X connect 10 0 6 0;
#X connect 10 0 6 2;
#X connect 11 0 3 0;
#X connect 11 0 62 0;
#X connect 11 0 0 2;
#X connect 13 0 12 0;
#X connect 14 0 15 0;
#X connect 15 0 16 0;
#X connect 15 0 17 0;
#X connect 16 0 12 0;
#X connect 17 0 12 0;
#X connect 18 0 21 0;
#X connect 18 1 19 0;
#X connect 19 0 12 0;
#X connect 20 0 18 0;
#X connect 21 0 12 0;
#X connect 21 0 240 0;
#X connect 21 0 13 0;
#X connect 22 0 258 0;
#X connect 22 1 257 0;
#X connect 23 0 28 0;
#X connect 24 0 237 0;
#X connect 24 0 265 0;
#X connect 25 0 211 0;
#X connect 27 0 24 0;
#X connect 28 0 29 0;
#X connect 29 0 30 0;
#X connect 30 0 27 0;
#X connect 31 0 32 0;
#X connect 32 0 30 0;
#X connect 32 1 23 0;
#X connect 33 0 30 0;
#X connect 35 0 45 0;
#X connect 36 0 45 1;
#X connect 37 0 45 2;
#X connect 38 0 45 4;
#X connect 39 0 45 11;
#X connect 40 0 45 7;
#X connect 41 0 45 8;
#X connect 42 0 45 9;
#X connect 43 0 45 10;
#X connect 45 0 95 0;
#X connect 45 1 54 0;
#X connect 45 2 44 0;
#X connect 46 0 22 0;
#X connect 47 0 22 0;
#X connect 48 0 22 0;
#X connect 49 0 241 0;
#X connect 50 0 241 1;
#X connect 51 0 241 2;
#X connect 55 0 241 4;
#X connect 56 0 242 0;
#X connect 57 0 242 1;
#X connect 58 0 242 2;
#X connect 62 0 61 0;
#X connect 63 0 241 11;
#X connect 64 0 241 7;
#X connect 65 0 241 6;
#X connect 66 0 241 9;
#X connect 67 0 241 10;
#X connect 68 0 241 8;
#X connect 69 0 45 6;
#X connect 70 0 242 6;
#X connect 71 0 242 7;
#X connect 72 0 242 8;
#X connect 73 0 242 9;
#X connect 74 0 242 10;
#X connect 75 0 242 11;
#X connect 78 0 243 0;
#X connect 79 0 243 1;
#X connect 80 0 243 2;
#X connect 82 0 242 4;
#X connect 83 0 243 4;
#X connect 84 0 244 0;
#X connect 85 0 244 1;
#X connect 86 0 244 2;
#X connect 88 0 245 0;
#X connect 89 0 245 1;
#X connect 90 0 245 2;
#X connect 92 0 244 4;
#X connect 93 0 245 4;
#X connect 94 0 18 0;
#X connect 95 0 45 5;
#X connect 96 0 241 5;
#X connect 97 0 242 5;
#X connect 98 0 245 5;
#X connect 99 0 244 5;
#X connect 100 0 243 5;
#X connect 101 0 246 0;
#X connect 102 0 246 1;
#X connect 103 0 246 2;
#X connect 105 0 247 0;
#X connect 106 0 247 1;
#X connect 107 0 247 2;
#X connect 109 0 248 0;
#X connect 110 0 248 1;
#X connect 111 0 248 2;
#X connect 113 0 249 0;
#X connect 114 0 249 1;
#X connect 115 0 249 2;
#X connect 117 0 250 0;
#X connect 118 0 250 1;
#X connect 119 0 250 2;
#X connect 121 0 251 0;
#X connect 122 0 251 1;
#X connect 123 0 251 2;
#X connect 125 0 246 5;
#X connect 126 0 247 5;
#X connect 127 0 248 5;
#X connect 128 0 249 5;
#X connect 129 0 250 5;
#X connect 130 0 251 5;
#X connect 131 0 246 4;
#X connect 132 0 248 4;
#X connect 133 0 247 4;
#X connect 134 0 249 4;
#X connect 135 0 250 4;
#X connect 136 0 251 4;
#X connect 146 0 22 0;
#X connect 147 0 22 0;
#X connect 148 0 22 0;
#X connect 149 0 22 0;
#X connect 150 0 22 0;
#X connect 151 0 22 0;
#X connect 152 0 22 0;
#X connect 153 0 22 0;
#X connect 154 0 22 0;
#X connect 155 0 23 0;
#X connect 157 0 246 6;
#X connect 158 0 246 7;
#X connect 159 0 246 8;
#X connect 160 0 246 9;
#X connect 161 0 246 10;
#X connect 162 0 246 11;
#X connect 163 0 243 11;
#X connect 164 0 243 10;
#X connect 165 0 243 9;
#X connect 166 0 243 8;
#X connect 167 0 243 7;
#X connect 168 0 243 6;
#X connect 170 0 245 6;
#X connect 171 0 245 7;
#X connect 172 0 245 8;
#X connect 173 0 245 9;
#X connect 174 0 245 10;
#X connect 175 0 245 11;
#X connect 176 0 250 6;
#X connect 177 0 250 7;
#X connect 178 0 250 8;
#X connect 179 0 250 9;
#X connect 180 0 250 10;
#X connect 181 0 250 11;
#X connect 182 0 244 11;
#X connect 183 0 251 6;
#X connect 184 0 251 7;
#X connect 185 0 251 8;
#X connect 186 0 251 9;
#X connect 187 0 251 10;
#X connect 188 0 251 11;
#X connect 189 0 247 6;
#X connect 190 0 247 7;
#X connect 191 0 247 8;
#X connect 192 0 247 9;
#X connect 193 0 247 10;
#X connect 194 0 247 11;
#X connect 195 0 249 6;
#X connect 196 0 249 7;
#X connect 197 0 249 8;
#X connect 198 0 249 9;
#X connect 199 0 249 10;
#X connect 200 0 249 11;
#X connect 201 0 244 6;
#X connect 202 0 244 7;
#X connect 203 0 244 8;
#X connect 204 0 244 9;
#X connect 205 0 244 10;
#X connect 206 0 208 0;
#X connect 208 0 254 0;
#X connect 208 0 263 0;
#X connect 209 0 0 0;
#X connect 210 0 155 0;
#X connect 212 0 65 0;
#X connect 212 0 68 0;
#X connect 212 0 55 0;
#X connect 212 0 66 0;
#X connect 212 0 67 0;
#X connect 212 0 63 0;
#X connect 212 0 64 0;
#X connect 212 0 241 3;
#X connect 213 0 70 0;
#X connect 213 0 71 0;
#X connect 213 0 72 0;
#X connect 213 0 82 0;
#X connect 213 0 73 0;
#X connect 213 0 74 0;
#X connect 213 0 75 0;
#X connect 213 0 242 3;
#X connect 214 0 69 0;
#X connect 214 0 40 0;
#X connect 214 0 41 0;
#X connect 214 0 38 0;
#X connect 214 0 42 0;
#X connect 214 0 43 0;
#X connect 214 0 39 0;
#X connect 214 0 45 3;
#X connect 215 0 168 0;
#X connect 215 0 167 0;
#X connect 215 0 166 0;
#X connect 215 0 83 0;
#X connect 215 0 165 0;
#X connect 215 0 164 0;
#X connect 215 0 163 0;
#X connect 215 0 243 3;
#X connect 216 0 201 0;
#X connect 216 0 202 0;
#X connect 216 0 203 0;
#X connect 216 0 92 0;
#X connect 216 0 204 0;
#X connect 216 0 205 0;
#X connect 216 0 182 0;
#X connect 216 0 244 3;
#X connect 217 0 170 0;
#X connect 217 0 171 0;
#X connect 217 0 172 0;
#X connect 217 0 93 0;
#X connect 217 0 173 0;
#X connect 217 0 174 0;
#X connect 217 0 175 0;
#X connect 217 0 245 3;
#X connect 218 0 231 0;
#X connect 218 0 232 0;
#X connect 218 0 236 0;
#X connect 218 0 132 0;
#X connect 218 0 235 0;
#X connect 218 0 233 0;
#X connect 218 0 234 0;
#X connect 218 0 248 3;
#X connect 219 0 189 0;
#X connect 219 0 190 0;
#X connect 219 0 191 0;
#X connect 219 0 133 0;
#X connect 219 0 192 0;
#X connect 219 0 193 0;
#X connect 219 0 194 0;
#X connect 219 0 247 3;
#X connect 220 0 157 0;
#X connect 220 0 158 0;
#X connect 220 0 159 0;
#X connect 220 0 131 0;
#X connect 220 0 160 0;
#X connect 220 0 161 0;
#X connect 220 0 162 0;
#X connect 220 0 246 3;
#X connect 221 0 196 0;
#X connect 221 0 197 0;
#X connect 221 0 134 0;
#X connect 221 0 198 0;
#X connect 221 0 199 0;
#X connect 221 0 200 0;
#X connect 221 0 195 0;
#X connect 221 0 249 3;
#X connect 222 0 176 0;
#X connect 222 0 177 0;
#X connect 222 0 178 0;
#X connect 222 0 135 0;
#X connect 222 0 179 0;
#X connect 222 0 180 0;
#X connect 222 0 181 0;
#X connect 222 0 250 3;
#X connect 223 0 183 0;
#X connect 223 0 184 0;
#X connect 223 0 185 0;
#X connect 223 0 136 0;
#X connect 223 0 186 0;
#X connect 223 0 187 0;
#X connect 223 0 188 0;
#X connect 223 0 251 3;
#X connect 224 0 252 0;
#X connect 225 0 229 0;
#X connect 226 0 230 0;
#X connect 228 0 238 0;
#X connect 229 0 252 0;
#X connect 229 1 252 1;
#X connect 230 0 252 0;
#X connect 230 1 252 2;
#X connect 231 0 248 6;
#X connect 232 0 248 7;
#X connect 233 0 248 10;
#X connect 234 0 248 11;
#X connect 235 0 248 9;
#X connect 236 0 248 8;
#X connect 239 0 0 0;
#X connect 240 0 12 0;
#X connect 241 0 96 0;
#X connect 241 1 53 0;
#X connect 241 2 52 0;
#X connect 242 0 97 0;
#X connect 242 1 60 0;
#X connect 242 2 59 0;
#X connect 243 0 100 0;
#X connect 243 1 138 0;
#X connect 243 2 81 0;
#X connect 244 0 99 0;
#X connect 244 1 137 0;
#X connect 244 2 87 0;
#X connect 245 0 98 0;
#X connect 245 1 139 0;
#X connect 245 2 91 0;
#X connect 246 0 125 0;
#X connect 246 1 140 0;
#X connect 246 2 104 0;
#X connect 247 0 126 0;
#X connect 247 1 141 0;
#X connect 247 2 108 0;
#X connect 248 0 127 0;
#X connect 248 1 142 0;
#X connect 248 2 112 0;
#X connect 249 0 128 0;
#X connect 249 1 143 0;
#X connect 249 2 116 0;
#X connect 250 0 129 0;
#X connect 250 1 144 0;
#X connect 250 2 120 0;
#X connect 251 0 130 0;
#X connect 251 1 145 0;
#X connect 251 2 124 0;
#X connect 252 0 228 0;
#X connect 255 0 256 0;
#X connect 255 0 262 0;
#X connect 256 0 261 0;
#X connect 257 0 253 1;
#X connect 258 0 253 0;
#X connect 259 0 258 1;
#X connect 259 0 257 1;
#X connect 260 0 261 0;
#X connect 261 0 259 0;
#X connect 262 0 259 0;
#X connect 263 0 211 0;
#X connect 264 0 169 0;
#X connect 265 0 211 0;
