#N canvas 143 23 895 755 10;
#X obj 4 -12 gem-key-nav;
#X obj 9 -137 gemwin;
#X msg 39 -183 color 0.8 0.8 0.8;
#X obj 4 68 s lr;
#X obj 55 68 s ud;
#X msg 60 -38 75;
#X obj 239 -35 r lr;
#X obj 270 -35 r ud;
#X obj 131 -12 cloud-circles;
#X msg 170 -35 100;
#X obj 107 69 s fb;
#X obj 302 -34 r fb;
#X obj 131 -56 loadbang;
#X obj 220 82 sound-proc;
#X obj 232 154 dac~;
#X obj 413 96 r lr;
#X obj 444 96 r ud;
#X obj 476 96 r fb;
#X msg 473 -22 open homeGifs/dk-blue-flower.gif;
#X obj 597 205 s~ toSND3;
#X obj 220 60 r~ toSND2;
#X obj 282 60 r~ toSND3;
#X msg 539 114 text - Michel Foucault;
#X msg 484 8 text [D]iscipline proceeds from the distribution of;
#X msg 495 29 text individuals in space...Discipline sometimes requires
;
#X msg 506 50 text enclosure. The specification of a place heterogeneous
;
#X msg 517 71 text and closed in upon itself. It is the protected place
;
#X msg 529 93 text of disciplinary monotony.;
#X obj 21 166 v homes;
#X obj 21 277 sel 0;
#X obj 9 100 loadbang;
#X obj 60 -61 loadbang;
#X msg 21 145 2;
#X text 8 354 starts world & resets \; when all houses found;
#X floatatom 21 256 5 0 0 0 - - -;
#X obj 21 192 - 1;
#X msg 21 213 \$1;
#X obj 21 234 v homes;
#X obj 662 205 s \$0-homesBang;
#X obj 107 122 r \$0-homesBang;
#X obj 107 144 t b b;
#X obj 94 234 bng 15 250 50 0 empty empty empty 17 7 0 10 -262144 -1
-1;
#X text 80 174 when home deleted \; subtracts 1 from \; current # of
homes;
#X obj 20 -298 loadbang;
#X obj 182 -230 gemkeyboard;
#X obj 182 -209 sel 53;
#X msg 190 -186 0 \, destroy \, reset;
#X msg 182 -165 cursor 1 \, menubar 1;
#X obj 20 -276 t b b;
#X obj 80 -297 bng 15 250 50 0 empty empty empty 17 7 0 10 -262144
-1 -1;
#X msg 20 -229 offset -125 15 \, create \, 1;
#X obj 98 -116 tgl 15 0 empty empty empty 17 7 0 10 -262144 -1 -1 1
1;
#X msg 98 -95 \; pd dsp \$1;
#X obj 451 200 models/tv;
#X msg 167 -97 dimen 1440 900 \, cursor 0 \, menubar 0 \, fullscreen
1;
#X msg 9 -250 dimen 720 450;
#X obj 132 -273 instructions;
#X text 4 -320 IT IS HARD TO GET TO WHERE YOU WILL NEVER FIND;
#X obj 507 -159 r lr;
#X obj 538 -159 r ud;
#X obj 570 -159 r fb;
#X obj 756 -50 s \$0-homesBang;
#X obj 545 -93 a-home-v6;
#X obj 545 -55 models/teacup;
#X msg 567 -277 open homeGifs/face-two.gif;
#X obj 691 -50 s~ toSND2;
#X msg 578 -246 text Friendship and the suckitude and distribution
of;
#X msg 589 -226 text individuals in space...time and gravity suckers
;
#X msg 600 -205 text The homgeneous place heterogeneity is open;
#X msg 611 -184 text and closed in upon Fred. Is the protected sword
;
#X msg 623 -162 text a dominant monotony?;
#X msg 633 -141 text - Said Noone;
#X obj 126 250 gemkeyboard;
#X text 120 216 click = to reset \; game at any time;
#X obj 127 270 sel 24;
#X obj 21 122 r \$0-initbang;
#X obj 4 -83 r \$0-initbang;
#X obj 9 338 s \$0-initbang;
#X obj 419 -48 r \$0-initbang;
#X obj 513 -303 r \$0-initbang;
#X obj 247 237 r lr;
#X obj 386 210 r ud;
#X obj 553 212 r fb;
#X text 282 232 if out of bounds;
#X obj 386 230 t b f;
#X obj 553 232 t b f;
#X obj 203 188 all-found-sign;
#X obj 247 293 sel 1;
#X msg 28 -205 perspec -1 1 -1 1 1 600;
#X obj 247 315 s \$0-center;
#X obj 8 -108 r \$0-center;
#X obj 247 259 expr if (sqrt(pow($f1 \, 2) + pow($f2 \, 2) + pow($f3
\, 2)) > 295 \, 1 \, 0);
#X obj 219 132 *~ 1;
#X obj 253 132 *~ 1;
#X obj 154 292 s \$0-sndOff;
#X obj 301 80 r \$0-sndOff;
#X msg 240 106 0;
#X msg 273 106 1;
#X obj 148 312 del 10;
#X obj 325 121 del 100;
#X obj 313 101 line 0 50;
#X obj 451 162 a-home-v6;
#X obj 132 -297 r \$0-initbang;
#X obj 21 299 del 60005;
#X connect 0 0 3 0;
#X connect 0 1 4 0;
#X connect 0 2 10 0;
#X connect 2 0 1 0;
#X connect 5 0 0 1;
#X connect 6 0 8 3;
#X connect 7 0 8 4;
#X connect 9 0 8 1;
#X connect 11 0 8 5;
#X connect 12 0 9 0;
#X connect 12 0 8 0;
#X connect 12 0 8 2;
#X connect 13 0 92 0;
#X connect 13 1 93 0;
#X connect 15 0 101 0;
#X connect 16 0 101 1;
#X connect 17 0 101 2;
#X connect 18 0 101 4;
#X connect 20 0 13 0;
#X connect 21 0 13 0;
#X connect 22 0 101 11;
#X connect 23 0 101 6;
#X connect 24 0 101 7;
#X connect 25 0 101 8;
#X connect 26 0 101 9;
#X connect 27 0 101 10;
#X connect 28 0 35 0;
#X connect 29 0 86 0;
#X connect 29 0 103 0;
#X connect 30 0 77 0;
#X connect 31 0 5 0;
#X connect 31 0 0 2;
#X connect 31 0 51 0;
#X connect 32 0 28 0;
#X connect 34 0 29 0;
#X connect 35 0 36 0;
#X connect 36 0 37 0;
#X connect 37 0 34 0;
#X connect 39 0 40 0;
#X connect 40 0 37 0;
#X connect 40 1 28 0;
#X connect 41 0 37 0;
#X connect 43 0 48 0;
#X connect 44 0 45 0;
#X connect 45 0 46 0;
#X connect 45 0 47 0;
#X connect 46 0 1 0;
#X connect 47 0 1 0;
#X connect 48 0 50 0;
#X connect 48 1 55 0;
#X connect 49 0 48 0;
#X connect 50 0 1 0;
#X connect 50 0 88 0;
#X connect 50 0 2 0;
#X connect 51 0 52 0;
#X connect 53 0 101 5;
#X connect 55 0 1 0;
#X connect 58 0 62 0;
#X connect 59 0 62 1;
#X connect 60 0 62 2;
#X connect 62 0 63 0;
#X connect 62 1 65 0;
#X connect 62 2 61 0;
#X connect 63 0 62 5;
#X connect 64 0 62 4;
#X connect 66 0 62 6;
#X connect 67 0 62 7;
#X connect 68 0 62 8;
#X connect 69 0 62 9;
#X connect 70 0 62 10;
#X connect 71 0 62 11;
#X connect 72 0 74 0;
#X connect 74 0 94 0;
#X connect 74 0 98 0;
#X connect 75 0 32 0;
#X connect 76 0 0 0;
#X connect 78 0 23 0;
#X connect 78 0 24 0;
#X connect 78 0 25 0;
#X connect 78 0 18 0;
#X connect 78 0 26 0;
#X connect 78 0 27 0;
#X connect 78 0 22 0;
#X connect 78 0 101 3;
#X connect 79 0 66 0;
#X connect 79 0 67 0;
#X connect 79 0 68 0;
#X connect 79 0 64 0;
#X connect 79 0 69 0;
#X connect 79 0 70 0;
#X connect 79 0 71 0;
#X connect 79 0 62 3;
#X connect 80 0 91 0;
#X connect 81 0 84 0;
#X connect 82 0 85 0;
#X connect 84 0 91 0;
#X connect 84 1 91 1;
#X connect 85 0 91 0;
#X connect 85 1 91 2;
#X connect 87 0 89 0;
#X connect 88 0 1 0;
#X connect 90 0 0 0;
#X connect 91 0 87 0;
#X connect 92 0 14 0;
#X connect 93 0 14 1;
#X connect 95 0 99 0;
#X connect 95 0 100 0;
#X connect 96 0 92 1;
#X connect 96 0 93 1;
#X connect 97 0 92 1;
#X connect 97 0 93 1;
#X connect 98 0 77 0;
#X connect 99 0 97 0;
#X connect 100 0 96 0;
#X connect 101 0 53 0;
#X connect 101 1 19 0;
#X connect 101 2 38 0;
#X connect 102 0 56 0;
#X connect 103 0 77 0;
