#N canvas 269 23 1004 723 10;
#X obj 497 -41 separator;
#X obj 496 143 textextruded;
#X obj 497 62 separator;
#X obj 497 40 textextruded;
#X obj 683 -262 inlet;
#X obj 768 -263 inlet;
#X obj 725 -263 inlet;
#X obj 9 -264 inlet;
#X obj 369 -209 f;
#X obj 395 -209 + 1;
#X obj 369 -188 % 2;
#X obj 324 -167 gemhead 0;
#X obj 644 40 textextruded;
#X obj 644 -41 separator;
#X obj 644 143 textextruded;
#X obj 644 62 separator;
#X obj 811 -263 inlet;
#X obj 14 -49 separator;
#X obj 324 -146 spigot 0;
#X obj 401 -263 loadbang;
#X msg 401 -242 1;
#X text 106 -83 signboard;
#X obj 441 -220 s \$0-size;
#X obj 567 20 r \$0-size;
#X obj 563 123 r \$0-size;
#X obj 715 20 r \$0-size;
#X obj 712 123 r \$0-size;
#X obj 522 -262 inlet;
#X obj 607 -263 inlet;
#X obj 564 -263 inlet;
#X obj 515 -167 translateXYZ 0 0 0;
#X text 524 -151 how sign is placed in space;
#X msg 440 -242 6;
#X text 25 -97 bang -- X Y Z -- ln1 ln2 ln3 ln4 ln5 ln6;
#X obj 793 40 textextruded;
#X obj 793 -40 separator;
#X obj 793 143 textextruded;
#X obj 793 63 separator;
#X obj 862 20 r \$0-size;
#X obj 865 123 r \$0-size;
#X obj 497 -20 translateXYZ 0 1.25 1;
#X obj 496 83 translateXYZ 0 0.75 1;
#X obj 644 -20 translateXYZ 0 0.25 1;
#X obj 644 83 translateXYZ 0 -0.25 1;
#X obj 793 -20 translateXYZ 0 -0.75 1;
#X obj 793 83 translateXYZ 0 -1.25 1;
#X obj 853 -263 inlet;
#X obj 896 -263 inlet;
#X obj 515 -82 colorRGB 0 0.25 0 1;
#X obj 14 -27 translateXYZ 0 0 -0.1;
#X obj 72 -239 s \$0-signOn;
#X obj 9 -218 s \$0-signOff;
#X obj 309 -12 r \$0-signOff;
#X obj 298 -73 r \$0-signOn;
#X text 45 -266 toggles sign;
#X obj 324 -262 r \$0-signOn;
#X obj 298 -237 r \$0-signOff;
#X obj 298 12 tgl 15 0 empty empty empty 17 7 0 10 -262144 -1 -1 0
1;
#X msg 805 123 depth \$1;
#X obj 805 103 r \$0-depth6;
#X msg 801 20 depth \$1;
#X msg 652 123 depth \$1;
#X msg 654 20 depth \$1;
#X obj 801 0 r \$0-depth5;
#X obj 652 103 r \$0-depth4;
#X obj 654 0 r \$0-depth3;
#X msg 506 20 depth \$1;
#X msg 503 123 depth \$1;
#X obj 506 0 r \$0-depth1;
#X obj 503 103 r \$0-depth2;
#X msg 339 423 0.5;
#X obj 412 425 s \$0-depth1;
#X obj 491 425 s \$0-depth2;
#X obj 570 425 s \$0-depth3;
#X obj 648 425 s \$0-depth4;
#X obj 727 425 s \$0-depth5;
#X obj 808 425 s \$0-depth6;
#X obj 361 51 f;
#X obj 339 402 r \$0-signOn;
#X obj 412 404 line;
#X obj 412 363 pack f f;
#X obj 453 253 t b f b;
#X obj 298 -32 t b b;
#X msg 412 383 \$2 \$1;
#X obj 491 404 line;
#X obj 491 363 pack f f;
#X msg 491 383 \$2 \$1;
#X obj 570 404 line;
#X obj 570 363 pack f f;
#X msg 570 383 \$2 \$1;
#X obj 648 404 line;
#X obj 648 363 pack f f;
#X msg 648 383 \$2 \$1;
#X obj 727 404 line;
#X obj 727 363 pack f f;
#X msg 727 383 \$2 \$1;
#X obj 808 404 line;
#X obj 808 363 pack f f;
#X msg 808 383 \$2 \$1;
#X obj 826 342 * -1;
#X obj 745 342 * -1;
#X obj 667 342 * -1;
#X obj 588 342 * -1;
#X obj 509 342 * -1;
#X obj 430 342 * -1;
#X obj 387 51 - 3;
#X text 716 270 now that random exposed can make the # \; > as time
increases!!!;
#X msg 142 249 0.02 1 0.631;
#X msg 112 269 1 0 0.5;
#X obj 176 367 r \$0-signOn;
#X msg 97 189 0.25 0 1;
#X msg 127 229 0.004 0.804 0.996;
#X obj 826 322 random;
#X obj 745 322 random;
#X obj 666 322 random;
#X obj 588 322 random;
#X obj 509 322 random;
#X obj 430 322 random;
#X obj 18 148 accumrotate;
#X msg 22 21 reset;
#X obj 22 0 r \$0-signOn;
#X obj 120 68 random 10;
#X obj 120 88 / 100;
#X obj 105 108 *;
#X obj 93 47 t f b;
#X obj 53 69 random 10;
#X obj 53 89 / 100;
#X obj 38 109 *;
#X obj 26 48 t f b;
#X obj 184 67 random 10;
#X obj 184 87 / 100;
#X obj 169 107 *;
#X obj 157 46 t f b;
#X msg 164 393 1 0 0.5;
#X obj 298 30 metro 150;
#X msg 361 30 147;
#X obj 558 203 expr ((155 - $f1) * 5);
#X obj 98 169 sel 0 1 2 3 4 5;
#X obj 98 148 random 6;
#X msg 170 189 0.831 0.384 0.235;
#X msg 156 209 0.984 0.957 0.408;
#X obj 341 361 / 30;
#X obj 227 339 togSpigot;
#X obj 239 319 r \$0-signOn;
#X obj 141 339 togSpigot;
#X obj 153 319 r \$0-signOn;
#X obj 54 338 togSpigot;
#X obj 66 318 r \$0-signOn;
#X obj -33 338 togSpigot;
#X obj -21 318 r \$0-signOn;
#X obj 292 228 random 4;
#X obj 292 249 sel 0 1 2 3;
#X obj 613 -188 - 5;
#X msg 219 393 9;
#X obj 109 434 colorSquare;
#X obj 9 -239 del 21000;
#X obj 298 -53 del 15000;
#X obj 528 -113 unpack f f f;
#X obj 323 296 s \$0-colors;
#X obj 528 -134 r \$0-colors;
#X obj 632 -129 r \$0-signOn;
#X msg 632 -108 0 0.25 0;
#X connect 0 0 40 0;
#X connect 2 0 41 0;
#X connect 4 0 3 0;
#X connect 5 0 12 0;
#X connect 6 0 1 0;
#X connect 7 0 50 0;
#X connect 7 0 155 0;
#X connect 8 0 9 0;
#X connect 8 0 10 0;
#X connect 9 0 8 1;
#X connect 10 0 18 1;
#X connect 11 0 18 0;
#X connect 13 0 42 0;
#X connect 15 0 43 0;
#X connect 16 0 14 0;
#X connect 17 0 49 0;
#X connect 18 0 30 0;
#X connect 19 0 20 0;
#X connect 19 0 32 0;
#X connect 20 0 8 1;
#X connect 23 0 3 1;
#X connect 24 0 1 1;
#X connect 25 0 12 1;
#X connect 26 0 14 1;
#X connect 27 0 30 1;
#X connect 28 0 152 0;
#X connect 29 0 30 2;
#X connect 30 0 17 0;
#X connect 30 0 48 0;
#X connect 32 0 22 0;
#X connect 35 0 44 0;
#X connect 37 0 45 0;
#X connect 38 0 34 1;
#X connect 39 0 36 1;
#X connect 40 0 3 0;
#X connect 41 0 1 0;
#X connect 42 0 12 0;
#X connect 43 0 14 0;
#X connect 44 0 34 0;
#X connect 45 0 36 0;
#X connect 46 0 34 0;
#X connect 47 0 36 0;
#X connect 48 0 2 0;
#X connect 48 0 0 0;
#X connect 48 0 13 0;
#X connect 48 0 15 0;
#X connect 48 0 35 0;
#X connect 48 0 37 0;
#X connect 49 0 118 0;
#X connect 52 0 57 0;
#X connect 53 0 156 0;
#X connect 55 0 8 0;
#X connect 56 0 8 0;
#X connect 57 0 134 0;
#X connect 58 0 36 0;
#X connect 59 0 58 0;
#X connect 60 0 34 0;
#X connect 61 0 14 0;
#X connect 62 0 12 0;
#X connect 63 0 60 0;
#X connect 64 0 61 0;
#X connect 65 0 62 0;
#X connect 66 0 3 0;
#X connect 67 0 1 0;
#X connect 68 0 66 0;
#X connect 69 0 67 0;
#X connect 70 0 71 0;
#X connect 70 0 72 0;
#X connect 70 0 73 0;
#X connect 70 0 74 0;
#X connect 70 0 75 0;
#X connect 70 0 76 0;
#X connect 77 0 81 0;
#X connect 77 0 105 0;
#X connect 77 0 132 0;
#X connect 77 0 124 0;
#X connect 77 0 128 0;
#X connect 77 0 134 1;
#X connect 77 0 136 0;
#X connect 78 0 70 0;
#X connect 79 0 71 0;
#X connect 80 0 83 0;
#X connect 81 0 80 0;
#X connect 81 0 85 0;
#X connect 81 0 88 0;
#X connect 81 0 91 0;
#X connect 81 0 94 0;
#X connect 81 0 97 0;
#X connect 81 1 80 0;
#X connect 81 1 85 0;
#X connect 81 1 88 0;
#X connect 81 1 91 0;
#X connect 81 1 94 0;
#X connect 81 1 97 0;
#X connect 81 2 112 0;
#X connect 81 2 113 0;
#X connect 81 2 114 0;
#X connect 81 2 115 0;
#X connect 81 2 116 0;
#X connect 81 2 117 0;
#X connect 82 0 57 0;
#X connect 82 1 135 0;
#X connect 83 0 79 0;
#X connect 84 0 72 0;
#X connect 85 0 86 0;
#X connect 86 0 84 0;
#X connect 87 0 73 0;
#X connect 88 0 89 0;
#X connect 89 0 87 0;
#X connect 90 0 74 0;
#X connect 91 0 92 0;
#X connect 92 0 90 0;
#X connect 93 0 75 0;
#X connect 94 0 95 0;
#X connect 95 0 93 0;
#X connect 96 0 76 0;
#X connect 97 0 98 0;
#X connect 98 0 96 0;
#X connect 99 0 97 1;
#X connect 100 0 94 1;
#X connect 101 0 91 1;
#X connect 102 0 88 1;
#X connect 103 0 85 1;
#X connect 104 0 80 1;
#X connect 105 0 77 1;
#X connect 107 0 148 0;
#X connect 107 0 146 0;
#X connect 107 0 144 0;
#X connect 107 0 142 0;
#X connect 107 0 158 0;
#X connect 108 0 148 0;
#X connect 108 0 146 0;
#X connect 108 0 144 0;
#X connect 108 0 142 0;
#X connect 108 0 158 0;
#X connect 109 0 133 0;
#X connect 109 0 153 0;
#X connect 110 0 148 0;
#X connect 110 0 146 0;
#X connect 110 0 144 0;
#X connect 110 0 142 0;
#X connect 111 0 148 0;
#X connect 111 0 146 0;
#X connect 111 0 144 0;
#X connect 111 0 142 0;
#X connect 111 0 158 0;
#X connect 112 0 99 0;
#X connect 113 0 100 0;
#X connect 114 0 101 0;
#X connect 115 0 102 0;
#X connect 116 0 103 0;
#X connect 117 0 104 0;
#X connect 118 0 154 0;
#X connect 119 0 118 0;
#X connect 120 0 119 0;
#X connect 121 0 122 0;
#X connect 122 0 123 1;
#X connect 123 0 118 3;
#X connect 124 0 123 0;
#X connect 124 1 121 0;
#X connect 125 0 126 0;
#X connect 126 0 127 1;
#X connect 127 0 118 1;
#X connect 128 0 127 0;
#X connect 128 1 125 0;
#X connect 129 0 130 0;
#X connect 130 0 131 1;
#X connect 131 0 118 2;
#X connect 132 0 131 0;
#X connect 132 1 129 0;
#X connect 133 0 154 5;
#X connect 133 0 154 4;
#X connect 133 0 154 3;
#X connect 133 0 154 2;
#X connect 134 0 77 0;
#X connect 134 0 138 0;
#X connect 134 0 150 0;
#X connect 135 0 77 0;
#X connect 136 0 112 1;
#X connect 136 0 113 1;
#X connect 136 0 114 1;
#X connect 136 0 115 1;
#X connect 136 0 116 1;
#X connect 136 0 117 1;
#X connect 136 0 141 0;
#X connect 137 0 110 0;
#X connect 137 1 108 0;
#X connect 137 2 111 0;
#X connect 137 3 107 0;
#X connect 137 4 140 0;
#X connect 137 5 139 0;
#X connect 138 0 137 0;
#X connect 139 0 148 0;
#X connect 139 0 146 0;
#X connect 139 0 144 0;
#X connect 139 0 142 0;
#X connect 139 0 158 0;
#X connect 140 0 148 0;
#X connect 140 0 146 0;
#X connect 140 0 144 0;
#X connect 140 0 142 0;
#X connect 140 0 158 0;
#X connect 141 0 154 1;
#X connect 142 0 154 5;
#X connect 143 0 142 1;
#X connect 144 0 154 4;
#X connect 145 0 144 1;
#X connect 146 0 154 3;
#X connect 147 0 146 1;
#X connect 148 0 154 2;
#X connect 149 0 148 1;
#X connect 150 0 151 0;
#X connect 151 0 148 1;
#X connect 151 1 146 1;
#X connect 151 2 144 1;
#X connect 151 3 142 1;
#X connect 152 0 30 3;
#X connect 153 0 154 1;
#X connect 155 0 51 0;
#X connect 156 0 82 0;
#X connect 157 0 48 1;
#X connect 157 1 48 2;
#X connect 157 2 48 3;
#X connect 159 0 157 0;
#X connect 160 0 161 0;
#X connect 161 0 157 0;
#X coords -20 -1 1 1 260 35 2 15 -100;
