#N canvas 176 54 959 755 10;
#X floatatom -402 50 5 0 0 0 - - -;
#X obj -513 109 vsl 15 200 0 3000 0 0 empty empty empty 0 -9 0 10 -262144
-1 -1 3400 1;
#X floatatom -529 318 8 0 0 0 - - -;
#X obj -724 169 *~ 0.75;
#X obj -725 230 *~ 0.75;
#X obj -717 294 *~ 0.75;
#X obj -473 170 *~ 0.75;
#X obj -474 231 *~ 0.75;
#X obj -475 292 *~ 0.75;
#X floatatom -527 359 5 0 0 0 - - -;
#X obj -624 471 bp~ 800 2;
#X obj -556 448 lop~ 5000;
#X obj -624 449 lop~ 5000;
#X obj -556 472 bp~ 3800 2;
#X obj -693 450 lop~ 5000;
#X obj -761 451 lop~ 5000;
#X obj -761 473 bp~ 200 2;
#X obj -693 474 bp~ 1200 2;
#X obj -623 550 bp~ 800 2;
#X obj -555 527 lop~ 5000;
#X obj -623 528 lop~ 5000;
#X obj -555 551 bp~ 3800 2;
#X obj -760 530 lop~ 5000;
#X obj -760 552 bp~ 100 2;
#X obj -692 529 lop~ 15000;
#X obj -692 553 bp~ 12500 2;
#X text -543 338 1400 - 1700;
#X obj -678 378 rev3~ 70 90 2000 50;
#X obj -853 390 *~ 0.5;
#X obj -782 391 *~ 0.5;
#X obj -706 327 rev3~ 90 90 10000 50;
#X obj -689 352 rev3~ 80 90 6000 50;
#X obj -310 560 *~ 0.9;
#X obj -224 559 *~ 0.9;
#X obj -552 58 *~ 0.2;
#X obj -468 58 *~ 0.2;
#X obj -826 282 *~ 0.5;
#X obj -826 236 *~ 0.5;
#X obj -552 34 *~ 0.25;
#X obj -475 34 *~ 0.25;
#X obj -680 406 *~ 0.16;
#X obj -625 407 *~ 0.16;
#X obj -556 494 *~ 10;
#X obj -555 573 *~ 10;
#X obj -624 492 *~ 10;
#X obj -623 571 *~ 10;
#X obj -693 496 *~ 10;
#X obj -761 494 *~ 10;
#X obj -760 573 *~ 10;
#X obj -692 575 *~ 10;
#X obj -93 576 outlet~;
#X obj 11 575 outlet~;
#X obj -826 257 s~ \$0-hookl;
#X obj -825 302 s~ \$0-hookr;
#X obj -853 411 s~ \$0-revl;
#X obj -782 411 s~ \$0-revr;
#X obj 13 516 r~ \$0-revr;
#X obj -91 517 r~ \$0-revl;
#X obj -83 536 r~ \$0-hookl;
#X obj 22 535 r~ \$0-hookr;
#X obj -552 79 s~ \$0-tablel;
#X obj -468 78 s~ \$0-tabler;
#X obj -82 497 r~ \$0-tablel;
#X obj 24 496 r~ \$0-tabler;
#X obj -310 580 s~ \$0-bouncel;
#X obj -224 579 s~ \$0-bouncer;
#X obj -93 555 r~ \$0-bouncel;
#X obj 11 554 r~ \$0-bouncer;
#X obj -500 5 inlet~;
#X obj -716 125 delwrite~ \$0-hookdouble-l 3000;
#X obj -724 148 delread~ \$0-hookdouble-l;
#X obj -715 190 delwrite~ \$0-hookdouble-l2 3000;
#X obj -725 211 delread~ \$0-hookdouble-l2;
#X obj -716 250 delwrite~ \$0-hookdouble-l3 3000;
#X obj -726 271 delread~ \$0-hookdouble-l3;
#X obj -465 127 delwrite~ \$0-hookdouble-r 3000;
#X obj -473 149 delread~ \$0-hookdouble-r;
#X obj -464 191 delwrite~ \$0-hookdouble-r2 3000;
#X obj -474 212 delread~ \$0-hookdouble-r2;
#X obj -465 251 delwrite~ \$0-hookdouble-r3 3000;
#X obj -475 272 delread~ \$0-hookdouble-r3;
#X obj -437 356 delwrite~ \$0-bounce1l 300;
#X obj -433 378 delread~ \$0-bounce1l 300;
#X obj -440 403 delwrite~ \$0-bounce2l 300;
#X obj -438 422 delread~ \$0-bounce2l 300;
#X obj -440 446 delwrite~ \$0-bounce3l 300;
#X obj -432 468 delread~ \$0-bounce3l 300;
#X obj -439 492 delwrite~ \$0-bounce4l 300;
#X obj -432 514 delread~ \$0-bounce4l 300;
#X obj -293 356 delwrite~ \$0-bounce1r 300;
#X obj -285 378 delread~ \$0-bounce1r 300;
#X obj -292 403 delwrite~ \$0-bounce2r 300;
#X obj -285 425 delread~ \$0-bounce2r 300;
#X obj -292 446 delwrite~ \$0-bounce3r 300;
#X obj -284 468 delread~ \$0-bounce3r 300;
#X obj -291 492 delwrite~ \$0-bounce4r 300;
#X obj -284 514 delread~ \$0-bounce4r 300;
#X obj -695 46 loadbang;
#X msg -688 74 512.563;
#X connect 0 0 38 1;
#X connect 0 0 39 1;
#X connect 1 0 2 0;
#X connect 1 0 70 0;
#X connect 1 0 72 0;
#X connect 1 0 74 0;
#X connect 1 0 76 0;
#X connect 1 0 78 0;
#X connect 1 0 80 0;
#X connect 3 0 30 1;
#X connect 3 0 36 0;
#X connect 3 0 71 0;
#X connect 4 0 31 0;
#X connect 4 0 37 0;
#X connect 4 0 73 0;
#X connect 5 0 27 0;
#X connect 5 0 36 0;
#X connect 5 0 69 0;
#X connect 6 0 30 0;
#X connect 6 0 77 0;
#X connect 7 0 31 1;
#X connect 7 0 79 0;
#X connect 8 0 27 0;
#X connect 8 0 75 0;
#X connect 9 0 40 1;
#X connect 9 0 41 1;
#X connect 10 0 44 0;
#X connect 11 0 13 0;
#X connect 12 0 10 0;
#X connect 13 0 42 0;
#X connect 14 0 17 0;
#X connect 15 0 16 0;
#X connect 16 0 47 0;
#X connect 17 0 46 0;
#X connect 18 0 45 0;
#X connect 19 0 21 0;
#X connect 20 0 18 0;
#X connect 21 0 43 0;
#X connect 22 0 23 0;
#X connect 23 0 48 0;
#X connect 24 0 25 0;
#X connect 25 0 49 0;
#X connect 27 0 29 0;
#X connect 27 1 69 0;
#X connect 27 2 40 0;
#X connect 27 3 41 0;
#X connect 28 0 54 0;
#X connect 29 0 55 0;
#X connect 30 0 29 0;
#X connect 30 1 31 1;
#X connect 31 0 28 0;
#X connect 31 1 27 1;
#X connect 32 0 64 0;
#X connect 33 0 65 0;
#X connect 34 0 60 0;
#X connect 35 0 61 0;
#X connect 36 0 53 0;
#X connect 37 0 52 0;
#X connect 38 0 34 0;
#X connect 38 0 69 0;
#X connect 39 0 35 0;
#X connect 39 0 75 0;
#X connect 40 0 12 0;
#X connect 40 0 15 0;
#X connect 40 0 20 0;
#X connect 40 0 22 0;
#X connect 40 0 28 0;
#X connect 41 0 11 0;
#X connect 41 0 14 0;
#X connect 41 0 19 0;
#X connect 41 0 24 0;
#X connect 41 0 29 0;
#X connect 42 0 89 0;
#X connect 43 0 89 0;
#X connect 44 0 81 0;
#X connect 45 0 81 0;
#X connect 46 0 89 0;
#X connect 47 0 81 0;
#X connect 48 0 81 0;
#X connect 49 0 89 0;
#X connect 56 0 51 0;
#X connect 57 0 50 0;
#X connect 58 0 50 0;
#X connect 59 0 51 0;
#X connect 62 0 50 0;
#X connect 63 0 51 0;
#X connect 66 0 50 0;
#X connect 67 0 51 0;
#X connect 68 0 38 0;
#X connect 68 0 39 0;
#X connect 70 0 3 0;
#X connect 72 0 4 0;
#X connect 74 0 5 0;
#X connect 76 0 6 0;
#X connect 78 0 7 0;
#X connect 80 0 8 0;
#X connect 82 0 32 0;
#X connect 82 0 83 0;
#X connect 84 0 33 0;
#X connect 84 0 85 0;
#X connect 86 0 32 0;
#X connect 86 0 87 0;
#X connect 88 0 32 0;
#X connect 90 0 33 0;
#X connect 90 0 91 0;
#X connect 92 0 32 0;
#X connect 92 0 93 0;
#X connect 94 0 33 0;
#X connect 94 0 95 0;
#X connect 96 0 33 0;
#X connect 97 0 98 0;
#X connect 98 0 1 0;
