#N canvas 0 22 450 300 10;
#X obj 73 119 spigot;
#X obj 106 79 f;
#X obj 132 79 + 1;
#X obj 106 99 % 2;
#X obj 106 59 inlet;
#X obj 73 139 outlet;
#X text 33 160 bang with initial condition \; then bang each time for
toggle;
#X obj 68 59 inlet;
#X connect 0 0 5 0;
#X connect 1 0 2 0;
#X connect 1 0 3 0;
#X connect 2 0 1 1;
#X connect 3 0 0 1;
#X connect 4 0 1 0;
#X connect 7 0 0 0;
