#N canvas 448 112 589 719 10;
#X obj -94 152 separator;
#X obj -94 130 inlet;
#X msg -78 318 texture 2;
#X msg -69 339 smooth 0.8;
#X obj -68 292 loadbang;
#X obj -56 488 *~ 1;
#X obj -35 457 r \$0-delete;
#X obj -56 510 outlet~;
#X text -50 403 stores file in table \; as data for music;
#X obj -94 400 model;
#X obj -94 177 scale 1.3 1.3 1.3;
#X obj -94 238 translateXYZ 0.05 0.15 0;
#X msg -56 363 open bear.obj;
#X obj -56 437 file-music;
#X connect 0 0 10 0;
#X connect 1 0 0 0;
#X connect 2 0 9 0;
#X connect 3 0 9 0;
#X connect 4 0 2 0;
#X connect 4 0 3 0;
#X connect 4 0 12 0;
#X connect 5 0 7 0;
#X connect 6 0 5 1;
#X connect 10 0 11 0;
#X connect 11 0 9 0;
#X connect 12 0 9 0;
#X connect 12 0 13 0;
#X connect 13 0 5 0;
