#N canvas 537 31 589 719 10;
#X obj -94 152 separator;
#X obj -94 130 inlet;
#X obj -94 177 scale 1.4 1.4 1.4;
#X obj -94 238 translateXYZ 0.09 0.22 0;
#X msg -78 318 texture 2;
#X msg -69 339 smooth 0.8;
#X obj -68 292 loadbang;
#X obj -56 488 *~ 1;
#X obj -35 457 r \$0-delete;
#X obj -56 510 outlet~;
#X text -50 403 stores file in table \; as data for music;
#X obj -94 400 model;
#X msg -56 363 open cat.obj;
#X obj -56 437 file-music;
#X connect 0 0 2 0;
#X connect 1 0 0 0;
#X connect 2 0 3 0;
#X connect 3 0 11 0;
#X connect 4 0 11 0;
#X connect 5 0 11 0;
#X connect 6 0 4 0;
#X connect 6 0 5 0;
#X connect 6 0 12 0;
#X connect 7 0 9 0;
#X connect 8 0 7 1;
#X connect 12 0 11 0;
#X connect 12 0 13 0;
#X connect 13 0 7 0;
