#N canvas 492 78 589 719 10;
#X obj -94 152 separator;
#X obj -94 130 inlet;
#X obj -94 238 translateXYZ 0.09 0.22 0.2;
#X obj -94 177 scale 1.5 1.5 1.5;
#X msg -78 312 texture 2;
#X msg -69 333 smooth 0.8;
#X obj -68 286 loadbang;
#X obj -56 482 *~ 1;
#X obj -35 451 r \$0-delete;
#X obj -56 504 outlet~;
#X text -50 397 stores file in table \; as data for music;
#X obj -94 394 model;
#X msg -56 357 open easel.obj;
#X obj -56 431 file-music;
#X connect 0 0 3 0;
#X connect 1 0 0 0;
#X connect 2 0 11 0;
#X connect 3 0 2 0;
#X connect 4 0 11 0;
#X connect 5 0 11 0;
#X connect 6 0 4 0;
#X connect 6 0 5 0;
#X connect 6 0 12 0;
#X connect 7 0 9 0;
#X connect 8 0 7 1;
#X connect 12 0 11 0;
#X connect 12 0 13 0;
#X connect 13 0 7 0;
