#N canvas 640 42 589 719 10;
#X msg -79 315 texture 2;
#X msg -70 336 smooth 0.8;
#X obj -94 152 separator;
#X obj -94 130 inlet;
#X obj -69 289 loadbang;
#X obj -94 177 scale 4 4 4;
#X obj -94 224 translateXYZ 0.4 0.3 0;
#X obj -57 485 *~ 1;
#X obj -36 454 r \$0-delete;
#X obj -57 507 outlet~;
#X text -51 400 stores file in table \; as data for music;
#X obj -95 397 model;
#X msg -57 360 open fisher-price.obj;
#X obj -57 434 file-music;
#X connect 0 0 11 0;
#X connect 1 0 11 0;
#X connect 2 0 5 0;
#X connect 3 0 2 0;
#X connect 4 0 0 0;
#X connect 4 0 1 0;
#X connect 4 0 12 0;
#X connect 5 0 6 0;
#X connect 6 0 11 0;
#X connect 7 0 9 0;
#X connect 8 0 7 1;
#X connect 12 0 11 0;
#X connect 12 0 13 0;
#X connect 13 0 7 0;
