#N canvas 510 23 589 719 10;
#X obj -94 152 separator;
#X obj -94 130 inlet;
#X obj -94 224 translateXYZ 0 0 0;
#X obj -94 177 scale 1.6 1.6 1.6;
#X msg -78 295 texture 2;
#X msg -69 316 smooth 0.8;
#X obj -68 269 loadbang;
#X obj -56 465 *~ 1;
#X obj -35 434 r \$0-delete;
#X obj -56 487 outlet~;
#X text -50 380 stores file in table \; as data for music;
#X obj -94 377 model;
#X msg -56 340 open lemonade.obj;
#X obj -56 414 file-music;
#X connect 0 0 3 0;
#X connect 1 0 0 0;
#X connect 2 0 11 0;
#X connect 3 0 2 0;
#X connect 4 0 11 0;
#X connect 5 0 11 0;
#X connect 6 0 4 0;
#X connect 6 0 5 0;
#X connect 6 0 12 0;
#X connect 7 0 9 0;
#X connect 8 0 7 1;
#X connect 12 0 11 0;
#X connect 12 0 13 0;
#X connect 13 0 7 0;
