#N canvas 510 23 589 719 10;
#X obj -94 152 separator;
#X obj -94 130 inlet;
#X msg -78 315 texture 2;
#X msg -69 336 smooth 0.8;
#X obj -68 289 loadbang;
#X obj -56 485 *~ 1;
#X obj -35 454 r \$0-delete;
#X obj -56 507 outlet~;
#X text -50 400 stores file in table \; as data for music;
#X obj -94 397 model;
#X obj -94 238 translateXYZ 0 0 0;
#X obj -94 177 scale 6 6 6;
#X msg -56 359 open teacup.obj;
#X obj -56 434 file-music;
#X connect 0 0 11 0;
#X connect 1 0 0 0;
#X connect 2 0 9 0;
#X connect 3 0 9 0;
#X connect 4 0 2 0;
#X connect 4 0 3 0;
#X connect 4 0 12 0;
#X connect 5 0 7 0;
#X connect 6 0 5 1;
#X connect 10 0 9 0;
#X connect 11 0 10 0;
#X connect 12 0 9 0;
#X connect 12 0 13 0;
#X connect 13 0 5 0;
