#N canvas 384 26 589 719 10;
#X obj -94 152 separator;
#X obj -94 130 inlet;
#X obj -94 177 scale 1.25 1.25 1.25;
#X obj -94 238 translateXYZ 0.05 0.2 0;
#X msg -78 302 texture 2;
#X msg -69 323 smooth 0.8;
#X obj -68 276 loadbang;
#X obj -56 472 *~ 1;
#X obj -35 441 r \$0-delete;
#X obj -56 494 outlet~;
#X text -50 387 stores file in table \; as data for music;
#X obj -94 384 model;
#X msg -56 347 open tv.obj;
#X obj -56 421 file-music;
#X connect 0 0 2 0;
#X connect 1 0 0 0;
#X connect 2 0 3 0;
#X connect 3 0 11 0;
#X connect 4 0 11 0;
#X connect 5 0 11 0;
#X connect 6 0 4 0;
#X connect 6 0 5 0;
#X connect 6 0 12 0;
#X connect 7 0 9 0;
#X connect 8 0 7 1;
#X connect 12 0 11 0;
#X connect 12 0 13 0;
#X connect 13 0 7 0;
